;TYPE=PLATED
;Layer: PTH_Through
;EasyEDA Pro v2.2.46.11, 2026-03-30 20:26:01
;Gerber Generator version 0.3
M48
METRIC,LZ,0000.00000
;Hole size 1 = 0.30500 METRIC
T01C0.30500
;Hole size 2 = 0.80000 METRIC
T02C0.80000
;Hole size 3 = 0.90002 METRIC
T03C0.90002
;Hole size 4 = 0.91440 METRIC
T04C0.91440
;Hole size 5 = 0.96520 METRIC
T05C0.96520
;Hole size 6 = 1.00000 METRIC
T06C1.00000
;Hole size 7 = 1.30002 METRIC
T07C1.30002
;Hole size 8 = 5.00000 METRIC
T08C5.00000
%
G05
G90
T01
X67.39001Y8.128
T02
X91.78089Y-37.84597
X86.7809Y-37.84597
T03
X51.181Y-48.26
X60.18101Y-48.26
X107.03463Y-37.29863G85X109.13461Y-37.29863
X111.58474Y-40.8493G85X111.58474Y-43.04944
X105.58526Y-43.04944G85X105.58526Y-40.8493
T04
X67.183Y-118.11
T05
X29.464Y-57.277
X32.00399Y-57.277
X34.54399Y-57.277
T06
X68.83413Y-34.29008
X66.29413Y-34.29008
X63.75413Y-34.29008
X61.21413Y-34.29008
X58.67413Y-34.29008
X56.13413Y-34.29008
X53.59413Y-34.29008
X51.05413Y-34.29008
X48.51413Y-34.29008
X45.97413Y-34.29008
X43.43413Y-34.29008
X40.89413Y-34.29008
X38.35413Y-33.02008
X38.35413Y-30.48008
X38.35413Y-27.94008
X38.35413Y-25.40008
X38.35413Y-22.86008
X38.35413Y-20.32008
X40.89413Y-19.05008
X43.43413Y-19.05008
X45.97413Y-19.05008
X48.51413Y-19.05008
X51.05413Y-19.05008
X53.59413Y-19.05008
X56.13413Y-19.05008
X58.67413Y-19.05008
X61.21413Y-19.05008
X63.75413Y-19.05008
X66.29413Y-19.05008
X68.83413Y-19.05008
X68.83408Y-24.12987
X68.83408Y-21.58987
X49.63168Y-21.94547
X52.17168Y-21.94547
X68.83408Y-26.66987
T07
X19.38398Y7.874
X24.384Y7.874
X29.38404Y7.874
X55.45198Y8.255
X60.452Y8.255
X65.45204Y8.255
X87.96398Y7.62
X92.964Y7.62
X97.96404Y7.62
T08
X-5.43174Y6.731
X-4.318Y-53.34
X107.696Y-54.102
X108.411Y5.37141
M30