G04 Layer: TopSolderMaskLayer*
G04 EasyEDA Pro v2.2.46.11, 2026-03-30 20:26:01*
G04 Gerber Generator version 0.3*
G04 Scale: 100 percent, Rotated: No, Reflected: No*
G04 Dimensions in millimeters*
G04 Leading zeros omitted, absolute positions, 4 integers and 5 decimals*
G04 Generated by one-click*
%FSLAX45Y45*%
%MOMM*%
%ADD10C,1.6256*%
%ADD11C,7.1016*%
%ADD12C,1.6*%
%ADD13C,2.4*%
%ADD14C,2.1016*%
%ADD15C,1.7044*%
%ADD16C,1.7032*%
%ADD17C,1.501*%
%ADD18O,3.80159X1.6016*%
%ADD19O,1.6016X3.90159*%
G75*


G04 Pad Start*
G54D10*
G01X6718300Y-11811000D03*
G54D11*
G01X-543174Y673100D03*
G01X-431800Y-5334000D03*
G01X10769600Y-5410200D03*
G01X10841100Y537141D03*
G54D12*
G01X9178100Y-3784600D03*
G01X8678101Y-3784600D03*
G54D13*
G01X5118100Y-4826000D03*
G01X6018098Y-4826000D03*
G54D14*
G01X1938401Y787400D03*
G01X2438400Y787400D03*
G01X2938399Y787400D03*
G01X5545201Y825500D03*
G01X6045200Y825500D03*
G01X6545199Y825500D03*
G01X8796401Y762000D03*
G01X9296400Y762000D03*
G01X9796399Y762000D03*
G54D16*
G01X6883400Y-3429000D03*
G01X6629400Y-3429000D03*
G01X6375400Y-3429000D03*
G01X6121400Y-3429000D03*
G01X5867400Y-3429000D03*
G01X5613400Y-3429000D03*
G01X5359400Y-3429000D03*
G01X5105400Y-3429000D03*
G01X4851400Y-3429000D03*
G01X4597400Y-3429000D03*
G01X4343400Y-3429000D03*
G01X4089400Y-3429000D03*
G01X3835400Y-3302000D03*
G01X3835400Y-3048000D03*
G01X3835400Y-2794000D03*
G01X3835400Y-2540000D03*
G01X3835400Y-2286000D03*
G01X3835400Y-2032000D03*
G01X4089400Y-1905000D03*
G01X4343400Y-1905000D03*
G01X4597400Y-1905000D03*
G01X4851400Y-1905000D03*
G01X5105400Y-1905000D03*
G01X5359400Y-1905000D03*
G01X5613400Y-1905000D03*
G01X5867400Y-1905000D03*
G01X6121400Y-1905000D03*
G01X6375400Y-1905000D03*
G01X6629400Y-1905000D03*
G01X6883400Y-1905000D03*
G01X6883400Y-2413000D03*
G01X6883400Y-2159000D03*
G01X4963160Y-2194560D03*
G01X5217160Y-2194560D03*
G01X6883400Y-2667000D03*
G54D17*
G01X2946400Y-5727700D03*
G01X3200399Y-5727700D03*
G01X3454399Y-5727700D03*
G54D18*
G01X10808462Y-3729863D03*
G54D19*
G01X11158474Y-4194937D03*
G01X10558526Y-4194937D03*
G04 Pad End*

M02*

