G04 Layer: TopSilkscreenLayer*
G04 EasyEDA Pro v2.2.46.11, 2026-03-30 20:26:01*
G04 Gerber Generator version 0.3*
G04 Scale: 100 percent, Rotated: No, Reflected: No*
G04 Dimensions in millimeters*
G04 Leading zeros omitted, absolute positions, 4 integers and 5 decimals*
G04 Generated by one-click*
%FSLAX45Y45*%
%MOMM*%
%ADD10C,0.1524*%
%ADD11C,0.254*%
%ADD12C,0.2032*%
%ADD13C,0.1*%
%ADD14C,0.9279*%
G75*


G04 Text Start*
G54D10*
G01X8607664Y-3555467D02*
G01X8604616Y-3549117D01*
G01X8598266Y-3543021D01*
G01X8592170Y-3539973D01*
G01X8579724Y-3539973D01*
G01X8573628Y-3543021D01*
G01X8567278Y-3549117D01*
G01X8564230Y-3555467D01*
G01X8561182Y-3564611D01*
G01X8561182Y-3580105D01*
G01X8564230Y-3589503D01*
G01X8567278Y-3595599D01*
G01X8573628Y-3601949D01*
G01X8579724Y-3604997D01*
G01X8592170Y-3604997D01*
G01X8598266Y-3601949D01*
G01X8604616Y-3595599D01*
G01X8607664Y-3589503D01*
G01X8637890Y-3552419D02*
G01X8643986Y-3549117D01*
G01X8653130Y-3539973D01*
G01X8653130Y-3604997D01*
G01X5025720Y-4606366D02*
G01X5025720Y-4671390D01*
G01X5025720Y-4606366D02*
G01X5053660Y-4606366D01*
G01X5062804Y-4609414D01*
G01X5065852Y-4612462D01*
G01X5069154Y-4618812D01*
G01X5069154Y-4624908D01*
G01X5065852Y-4631004D01*
G01X5062804Y-4634052D01*
G01X5053660Y-4637354D01*
G01X5025720Y-4637354D01*
G01X5047310Y-4637354D02*
G01X5069154Y-4671390D01*
G01X5099380Y-4618812D02*
G01X5105476Y-4615510D01*
G01X5114620Y-4606366D01*
G01X5114620Y-4671390D01*
G01X1518663Y-947947D02*
G01X1583687Y-947947D01*
G01X1518663Y-947947D02*
G01X1518663Y-920007D01*
G01X1521711Y-910863D01*
G01X1524759Y-907815D01*
G01X1531109Y-904513D01*
G01X1537205Y-904513D01*
G01X1543301Y-907815D01*
G01X1546349Y-910863D01*
G01X1549651Y-920007D01*
G01X1549651Y-947947D01*
G01X1549651Y-926357D02*
G01X1583687Y-904513D01*
G01X1534157Y-871239D02*
G01X1531109Y-871239D01*
G01X1524759Y-868191D01*
G01X1521711Y-865143D01*
G01X1518663Y-859047D01*
G01X1518663Y-846601D01*
G01X1521711Y-840251D01*
G01X1524759Y-837203D01*
G01X1531109Y-834155D01*
G01X1537205Y-834155D01*
G01X1543301Y-837203D01*
G01X1552699Y-843553D01*
G01X1583687Y-874287D01*
G01X1583687Y-831107D01*
G01X5125463Y-909847D02*
G01X5190487Y-909847D01*
G01X5125463Y-909847D02*
G01X5125463Y-881907D01*
G01X5128511Y-872763D01*
G01X5131559Y-869715D01*
G01X5137909Y-866413D01*
G01X5144005Y-866413D01*
G01X5150101Y-869715D01*
G01X5153149Y-872763D01*
G01X5156451Y-881907D01*
G01X5156451Y-909847D01*
G01X5156451Y-888257D02*
G01X5190487Y-866413D01*
G01X5125463Y-830091D02*
G01X5125463Y-796055D01*
G01X5150101Y-814597D01*
G01X5150101Y-805453D01*
G01X5153149Y-799103D01*
G01X5156451Y-796055D01*
G01X5165595Y-793007D01*
G01X5171945Y-793007D01*
G01X5181089Y-796055D01*
G01X5187439Y-802151D01*
G01X5190487Y-811549D01*
G01X5190487Y-820947D01*
G01X5187439Y-830091D01*
G01X5184137Y-833139D01*
G01X5178041Y-836187D01*
G01X8376663Y-973347D02*
G01X8441687Y-973347D01*
G01X8376663Y-973347D02*
G01X8376663Y-945407D01*
G01X8379711Y-936263D01*
G01X8382759Y-933215D01*
G01X8389109Y-929913D01*
G01X8395205Y-929913D01*
G01X8401301Y-933215D01*
G01X8404349Y-936263D01*
G01X8407651Y-945407D01*
G01X8407651Y-973347D01*
G01X8407651Y-951757D02*
G01X8441687Y-929913D01*
G01X8376663Y-868953D02*
G01X8419843Y-899687D01*
G01X8419843Y-853459D01*
G01X8376663Y-868953D02*
G01X8441687Y-868953D01*
G01X3588751Y-3555992D02*
G01X3635233Y-3555992D01*
G01X3644377Y-3552944D01*
G01X3650727Y-3546594D01*
G01X3653775Y-3537450D01*
G01X3653775Y-3531100D01*
G01X3650727Y-3521956D01*
G01X3644377Y-3515860D01*
G01X3635233Y-3512558D01*
G01X3588751Y-3512558D01*
G01X3601197Y-3482332D02*
G01X3597895Y-3476236D01*
G01X3588751Y-3467092D01*
G01X3653775Y-3467092D01*
G01X2792320Y-5451466D02*
G01X2792320Y-5497948D01*
G01X2795368Y-5507092D01*
G01X2801718Y-5513442D01*
G01X2810862Y-5516490D01*
G01X2817212Y-5516490D01*
G01X2826356Y-5513442D01*
G01X2832452Y-5507092D01*
G01X2835754Y-5497948D01*
G01X2835754Y-5451466D01*
G01X2869028Y-5466960D02*
G01X2869028Y-5463912D01*
G01X2872076Y-5457562D01*
G01X2875124Y-5454514D01*
G01X2881220Y-5451466D01*
G01X2893666Y-5451466D01*
G01X2900016Y-5454514D01*
G01X2903064Y-5457562D01*
G01X2906112Y-5463912D01*
G01X2906112Y-5470008D01*
G01X2903064Y-5476104D01*
G01X2896714Y-5485502D01*
G01X2865980Y-5516490D01*
G01X2909160Y-5516490D01*
G01X11923588Y-4787021D02*
G01X11923588Y-4740539D01*
G01X11920540Y-4731395D01*
G01X11914190Y-4725045D01*
G01X11905046Y-4721997D01*
G01X11898696Y-4721997D01*
G01X11889552Y-4725045D01*
G01X11883456Y-4731395D01*
G01X11880154Y-4740539D01*
G01X11880154Y-4787021D01*
G01X11843832Y-4787021D02*
G01X11809796Y-4787021D01*
G01X11828338Y-4762383D01*
G01X11819194Y-4762383D01*
G01X11812844Y-4759335D01*
G01X11809796Y-4756033D01*
G01X11806748Y-4746889D01*
G01X11806748Y-4740539D01*
G01X11809796Y-4731395D01*
G01X11815892Y-4725045D01*
G01X11825290Y-4721997D01*
G01X11834688Y-4721997D01*
G01X11843832Y-4725045D01*
G01X11846880Y-4728347D01*
G01X11849928Y-4734443D01*
G04 Text End*

G04 PolygonModel Start*
G54D11*
G01X8568093Y-3659607D02*
G01X9288087Y-3659607D01*
G01X8958097Y-3784120D02*
G01X9058079Y-3784120D01*
G01X8958097Y-3869578D02*
G01X8958097Y-3699579D01*
G01X8898082Y-3699604D02*
G01X8898082Y-3869591D01*
G01X8898082Y-3785062D02*
G01X8798082Y-3785062D01*
G01X8568093Y-3659607D02*
G01X8568093Y-3909588D01*
G01X9288087Y-3909588D02*
G01X9288087Y-3659607D01*
G01X9288087Y-3909588D02*
G01X8568093Y-3909588D01*
G01X5318100Y-4726000D02*
G01X5818099Y-4726000D01*
G01X5818099Y-4726000D02*
G01X5818099Y-4926000D01*
G01X5818099Y-4926000D02*
G01X5318100Y-4926000D01*
G01X5318100Y-4926000D02*
G01X5318100Y-4726000D01*
G01X5257067Y-4826000D02*
G01X5318100Y-4826000D01*
G01X5818099Y-4826000D02*
G01X5881848Y-4826000D01*
G01X3238497Y38100D02*
G01X3238497Y1168400D01*
G01X1638297Y1168400D02*
G01X3238299Y1168400D01*
G01X1638297Y1168400D02*
G01X1638297Y38100D01*
G01X1638297Y38100D02*
G01X1669831Y38100D01*
G01X3238497Y38100D02*
G01X3205560Y38100D01*
G01X2149323Y-292100D02*
G01X2730500Y-292100D01*
G01X2146525Y-76200D02*
G01X2730500Y-76200D01*
G01X6845297Y76200D02*
G01X6845297Y1206500D01*
G01X5245097Y1206500D02*
G01X6845099Y1206500D01*
G01X5245097Y1206500D02*
G01X5245097Y76200D01*
G01X5245097Y76200D02*
G01X5276631Y76200D01*
G01X6845297Y76200D02*
G01X6812360Y76200D01*
G01X5756123Y-254000D02*
G01X6337300Y-254000D01*
G01X5753325Y-38100D02*
G01X6337300Y-38100D01*
G01X10096497Y12700D02*
G01X10096497Y1143000D01*
G01X8496297Y1143000D02*
G01X10096299Y1143000D01*
G01X8496297Y1143000D02*
G01X8496297Y12700D01*
G01X8496297Y12700D02*
G01X8527831Y12700D01*
G01X10096497Y12700D02*
G01X10063560Y12700D01*
G01X9007323Y-317500D02*
G01X9588500Y-317500D01*
G01X9004525Y-101600D02*
G01X9588500Y-101600D01*
G54D12*
G01X3705845Y-3553452D02*
G01X7007845Y-3553452D01*
G01X7007845Y-3553452D02*
G01X7007845Y-1775457D01*
G01X7007845Y-1775457D02*
G01X3705845Y-1775457D01*
G01X3705845Y-1775457D02*
G01X3705845Y-3553452D01*
G54D13*
G01X2839700Y-5613400D02*
G01X3561099Y-5613400D01*
G01X3561099Y-5613400D02*
G01X3561099Y-5842000D01*
G01X3561099Y-5842000D02*
G01X2839700Y-5842000D01*
G01X2839700Y-5842000D02*
G01X2839700Y-5613400D01*
G54D11*
G01X11577196Y-4667387D02*
G01X11577196Y-3742388D01*
G01X10659186Y-4412389D02*
G01X10659186Y-4667387D01*
G01X11213508Y-3977389D02*
G01X10659186Y-3977389D01*
G01X11213508Y-4412389D02*
G01X10659186Y-4412389D01*
G01X10659186Y-4412389D02*
G01X10659186Y-3827965D01*
G01X10493510Y-4412389D02*
G01X10493510Y-4404784D01*
G01X10493510Y-4537385D02*
G01X10493510Y-4412389D01*
G01X11213508Y-4412389D02*
G01X11248507Y-4412389D01*
G01X11248507Y-4412389D02*
G01X11248507Y-3977389D01*
G01X11248507Y-3977389D02*
G01X11213508Y-3977389D01*
G01X10561165Y-3742388D02*
G01X10493510Y-3742388D01*
G01X10493510Y-3742388D02*
G01X10493510Y-3985064D01*
G01X10493510Y-4537385D02*
G01X10493510Y-4667387D01*
G01X10493510Y-4667387D02*
G01X11918508Y-4667387D01*
G01X11918508Y-4667387D02*
G01X11918508Y-3742388D01*
G01X11918508Y-3742388D02*
G01X10975779Y-3742388D01*
G01X10493510Y-4473783D02*
G03X10493502Y-3930142I-4J271821D01*

G04 Circle Start*
G01X1647933Y-152400D02*
G03X3228867Y-152400I790467J0D01*
G03X1647933Y-152400I-790467J0D01*
G01X2120900Y-177800D02*
G03X2755900Y-177800I317500J0D01*
G03X2120900Y-177800I-317500J0D01*
G01X5254733Y-114300D02*
G03X6835667Y-114300I790467J0D01*
G03X5254733Y-114300I-790467J0D01*
G01X5727700Y-139700D02*
G03X6362700Y-139700I317500J0D01*
G03X5727700Y-139700I-317500J0D01*
G01X8505933Y-177800D02*
G03X10086867Y-177800I790467J0D01*
G03X8505933Y-177800I-790467J0D01*
G01X8978900Y-203200D02*
G03X9613900Y-203200I317500J0D01*
G03X8978900Y-203200I-317500J0D01*
G04 Circle End*

M02*

