G04 Layer: TopLayer*
G04 EasyEDA Pro v2.2.46.11, 2026-03-30 20:26:01*
G04 Gerber Generator version 0.3*
G04 Scale: 100 percent, Rotated: No, Reflected: No*
G04 Dimensions in millimeters*
G04 Leading zeros omitted, absolute positions, 4 integers and 5 decimals*
G04 Generated by one-click*
%FSLAX45Y45*%
%MOMM*%
%ADD10C,0.203*%
%ADD11C,1.524*%
%ADD12C,7.0*%
%ADD13C,1.5*%
%ADD14C,2.0*%
%ADD15C,1.501*%
%ADD16O,3.7038X1.5*%
%ADD17O,3.69999X1.5*%
%ADD18O,1.5X3.79999*%
%ADD19C,0.61*%
%ADD20C,0.254*%
G75*


G04 Image Start*
G36*
G01X1141346Y-3136699D02*
G01X1092190Y-3136800D01*
G01X1043034Y-3136900D01*
G01X1022669Y-3135106D01*
G01X1002305Y-3133312D01*
G01X962980Y-3129011D01*
G01X905397Y-3119385D01*
G01X892757Y-3116611D01*
G01X880117Y-3113836D01*
G01X862561Y-3109651D01*
G01X845005Y-3105465D01*
G01X822534Y-3098977D01*
G01X800062Y-3092490D01*
G01X766355Y-3081017D01*
G01X750204Y-3075030D01*
G01X734052Y-3069043D01*
G01X709249Y-3058418D01*
G01X684445Y-3047792D01*
G01X658688Y-3034916D01*
G01X632932Y-3022041D01*
G01X612668Y-3010745D01*
G01X592405Y-2999450D01*
G01X550068Y-2972846D01*
G01X529002Y-2957969D01*
G01X507934Y-2943091D01*
G01X498794Y-2935916D01*
G01X719459Y-2935916D01*
G01X720753Y-2942120D01*
G01X722047Y-2948325D01*
G01X729074Y-2958951D01*
G01X735121Y-2962497D01*
G01X741167Y-2966043D01*
G01X747127Y-2968148D01*
G01X753088Y-2970252D01*
G01X773377Y-2974397D01*
G01X801467Y-2977427D01*
G01X833067Y-2978781D01*
G01X864667Y-2980135D01*
G01X1025478Y-2980177D01*
G01X1025478Y-2980177D01*
G01X1186289Y-2980218D01*
G01X1211569Y-2978740D01*
G01X1236849Y-2977261D01*
G01X1251596Y-2975165D01*
G01X1266343Y-2973068D01*
G01X1281090Y-2969469D01*
G01X1295837Y-2965870D01*
G01X1307515Y-2960429D01*
G01X1319193Y-2954987D01*
G01X1328266Y-2947762D01*
G01X1337339Y-2940537D01*
G01X1343453Y-2931902D01*
G01X1349566Y-2923267D01*
G01X1352512Y-2917417D01*
G01X1355458Y-2911567D01*
G01X1359059Y-2901992D01*
G01X1362660Y-2892418D01*
G01X1366035Y-2875516D01*
G01X1369409Y-2858615D01*
G01X1373689Y-2820667D01*
G01X1375147Y-2784124D01*
G01X1376604Y-2747582D01*
G01X1378011Y-2628818D01*
G01X1379416Y-2510056D01*
G01X1379416Y-2430646D01*
G01X1379415Y-2351236D01*
G01X1377967Y-2329451D01*
G01X1376519Y-2307666D01*
G01X1371105Y-2271124D01*
G01X1367521Y-2258474D01*
G01X1363938Y-2245825D01*
G01X1357307Y-2232473D01*
G01X1350675Y-2219121D01*
G01X1330633Y-2198992D01*
G01X1317335Y-2192518D01*
G01X1304037Y-2186045D01*
G01X1293790Y-2183203D01*
G01X1283542Y-2180361D01*
G01X1267502Y-2177617D01*
G01X1251463Y-2174873D01*
G01X1190502Y-2171511D01*
G01X1052163Y-2173220D01*
G01X913823Y-2174929D01*
G01X824984Y-2175821D01*
G01X736144Y-2176714D01*
G01X734826Y-2181754D01*
G01X733509Y-2186795D01*
G01X729209Y-2202958D01*
G01X724909Y-2219121D01*
G01X724051Y-2230365D01*
G01X723193Y-2241608D01*
G01X724805Y-2254960D01*
G01X726417Y-2268313D01*
G01X733556Y-2294746D01*
G01X744019Y-2319032D01*
G01X750883Y-2329270D01*
G01X757747Y-2339509D01*
G01X777038Y-2357382D01*
G01X782932Y-2360222D01*
G01X788827Y-2363062D01*
G01X797218Y-2365236D01*
G01X805610Y-2367410D01*
G01X825308Y-2369472D01*
G01X845005Y-2371535D01*
G01X893459Y-2372939D01*
G01X941913Y-2374343D01*
G01X1048652Y-2375801D01*
G01X1155390Y-2377259D01*
G01X1175888Y-2378099D01*
G01X1196385Y-2378940D01*
G01X1197307Y-2431145D01*
G01X1198228Y-2483351D01*
G01X1199590Y-2583843D01*
G01X1200951Y-2684335D01*
G01X1202432Y-2765982D01*
G01X1086217Y-2768425D01*
G01X970002Y-2770869D01*
G01X882925Y-2773601D01*
G01X862561Y-2775031D01*
G01X842196Y-2776460D01*
G01X826045Y-2778595D01*
G01X809893Y-2780730D01*
G01X796718Y-2784199D01*
G01X783543Y-2787669D01*
G01X775238Y-2792099D01*
G01X766933Y-2796529D01*
G01X760637Y-2802075D01*
G01X754341Y-2807621D01*
G01X748165Y-2816281D01*
G01X741990Y-2824942D01*
G01X739090Y-2832304D01*
G01X736190Y-2839667D01*
G01X727804Y-2871264D01*
G01X720960Y-2910618D01*
G01X720210Y-2923267D01*
G01X719459Y-2935916D01*
G01X498794Y-2935916D01*
G01X468609Y-2912224D01*
G01X453215Y-2898772D01*
G01X437820Y-2885319D01*
G01X416699Y-2865255D01*
G01X395578Y-2845190D01*
G01X378926Y-2827307D01*
G01X362275Y-2809423D01*
G01X344393Y-2788341D01*
G01X326513Y-2767258D01*
G01X310428Y-2745474D01*
G01X294344Y-2723688D01*
G01X269464Y-2687146D01*
G01X256105Y-2665361D01*
G01X242745Y-2643576D01*
G01X228803Y-2617575D01*
G01X214860Y-2591573D01*
G01X202484Y-2564869D01*
G01X190107Y-2538165D01*
G01X181420Y-2517139D01*
G01X172733Y-2496113D01*
G01X163944Y-2471461D01*
G01X155156Y-2446809D01*
G01X147281Y-2421510D01*
G01X139406Y-2396212D01*
G01X130978Y-2362240D01*
G01X122551Y-2328268D01*
G01X120476Y-2313048D01*
G01X118402Y-2297828D01*
G01X115350Y-2261285D01*
G01X114825Y-2254960D01*
G01X114300Y-2248636D01*
G01X114762Y-2144630D01*
G01X115225Y-2040625D01*
G01X116668Y-2018840D01*
G01X118110Y-1997055D01*
G01X119646Y-1979486D01*
G01X121181Y-1961918D01*
G01X124511Y-1940133D01*
G01X127840Y-1918348D01*
G01X134146Y-1893752D01*
G01X140452Y-1869156D01*
G01X150546Y-1838938D01*
G01X160639Y-1808720D01*
G01X167666Y-1789746D01*
G01X174692Y-1770772D01*
G01X199834Y-1711926D01*
G01X212273Y-1686536D01*
G01X224712Y-1661145D01*
G01X246314Y-1621791D01*
G01X255518Y-1606331D01*
G01X264721Y-1590871D01*
G01X283619Y-1562761D01*
G01X293067Y-1548706D01*
G01X717912Y-1548706D01*
G01X718203Y-1661848D01*
G01X718494Y-1774989D01*
G01X718840Y-1789746D01*
G01X719186Y-1804504D01*
G01X720706Y-1846668D01*
G01X722226Y-1888833D01*
G01X726385Y-1943646D01*
G01X728423Y-1957326D01*
G01X730461Y-1971007D01*
G01X733371Y-1976715D01*
G01X736281Y-1982424D01*
G01X741366Y-1988056D01*
G01X746450Y-1993689D01*
G01X749119Y-1995118D01*
G01X751788Y-1996547D01*
G01X753743Y-1994923D01*
G01X755699Y-1993299D01*
G01X757165Y-1994206D01*
G01X758631Y-1995112D01*
G01X758631Y-2010497D01*
G01X760700Y-2015453D01*
G01X762769Y-2020410D01*
G01X765670Y-2024100D01*
G01X768571Y-2027790D01*
G01X773506Y-2031146D01*
G01X778442Y-2034503D01*
G01X794182Y-2039922D01*
G01X800599Y-2039922D01*
G01X801486Y-2038485D01*
G01X802374Y-2037048D01*
G01X797696Y-2022954D01*
G01X799524Y-2020749D01*
G01X801353Y-2018544D01*
G01X809837Y-2019394D01*
G01X818320Y-2020243D01*
G01X828343Y-2021121D01*
G01X838366Y-2022000D01*
G01X845197Y-2018253D01*
G01X852027Y-2014506D01*
G01X855980Y-2008943D01*
G01X859934Y-2003380D01*
G01X862561Y-2003380D01*
G01X862530Y-2011461D01*
G01X862499Y-2019542D01*
G01X857343Y-2030902D01*
G01X852821Y-2034710D01*
G01X848300Y-2038517D01*
G01X845248Y-2039142D01*
G01X842196Y-2039767D01*
G01X835161Y-2040308D01*
G01X828125Y-2040850D01*
G01X823925Y-2042859D01*
G01X819725Y-2044867D01*
G01X818869Y-2050841D01*
G01X822647Y-2053815D01*
G01X826424Y-2056788D01*
G01X826424Y-2056788D01*
G01X841437Y-2056788D01*
G01X847434Y-2054439D01*
G01X853432Y-2052090D01*
G01X865413Y-2043974D01*
G01X867586Y-2040654D01*
G01X869760Y-2037334D01*
G01X871748Y-2025041D01*
G01X873737Y-2012747D01*
G01X875348Y-1974683D01*
G01X876958Y-1936619D01*
G01X876445Y-1895039D01*
G01X979131Y-1895039D01*
G01X979283Y-1915829D01*
G01X979435Y-1936619D01*
G01X983068Y-1966632D01*
G01X984638Y-1973961D01*
G01X986209Y-1981289D01*
G01X991089Y-1990583D01*
G01X995970Y-1999877D01*
G01X1015397Y-2024035D01*
G01X1024279Y-2030717D01*
G01X1033161Y-2037399D01*
G01X1039502Y-2040589D01*
G01X1045843Y-2043779D01*
G01X1053594Y-2046012D01*
G01X1061346Y-2048245D01*
G01X1078874Y-2050385D01*
G01X1096403Y-2052525D01*
G01X1123790Y-2053954D01*
G01X1151177Y-2055384D01*
G01X1191907Y-2056269D01*
G01X1191907Y-2056269D01*
G01X1232636Y-2057154D01*
G01X1272385Y-2053956D01*
G01X1285625Y-2050595D01*
G01X1298864Y-2047234D01*
G01X1307884Y-2042682D01*
G01X1316903Y-2038130D01*
G01X1324786Y-2032065D01*
G01X1332668Y-2026000D01*
G01X1351089Y-2006608D01*
G01X1369509Y-1987216D01*
G01X1368868Y-1326817D01*
G01X1343588Y-1320385D01*
G01X1332803Y-1318997D01*
G01X1322017Y-1317608D01*
G01X1298646Y-1320272D01*
G01X1285323Y-1324596D01*
G01X1272001Y-1328921D01*
G01X1264256Y-1333274D01*
G01X1256512Y-1337626D01*
G01X1247014Y-1344578D01*
G01X1237515Y-1351529D01*
G01X1230815Y-1359052D01*
G01X1224115Y-1366575D01*
G01X1210770Y-1389025D01*
G01X1208020Y-1397025D01*
G01X1205269Y-1405025D01*
G01X1203220Y-1417133D01*
G01X1201170Y-1429240D01*
G01X1199746Y-1442592D01*
G01X1198321Y-1455944D01*
G01X1195371Y-1512164D01*
G01X1191883Y-1682456D01*
G01X1188395Y-1852750D01*
G01X1188395Y-1855804D01*
G01X1131164Y-1855867D01*
G01X1073932Y-1855930D01*
G01X1013540Y-1858368D01*
G01X1005816Y-1860070D01*
G01X998091Y-1861772D01*
G01X993039Y-1864329D01*
G01X987987Y-1866886D01*
G01X983540Y-1873677D01*
G01X981335Y-1884358D01*
G01X979131Y-1895039D01*
G01X876445Y-1895039D01*
G01X876038Y-1862128D01*
G01X875118Y-1787638D01*
G01X872365Y-1630927D01*
G01X869613Y-1474216D01*
G01X869397Y-1469296D01*
G01X869181Y-1464377D01*
G01X866754Y-1592276D01*
G01X864326Y-1720175D01*
G01X861041Y-1858264D01*
G01X857757Y-1996352D01*
G01X855883Y-1996352D01*
G01X854808Y-1812585D01*
G01X853734Y-1628819D01*
G01X854635Y-1571194D01*
G01X855536Y-1513569D01*
G01X856996Y-1486162D01*
G01X858457Y-1458755D01*
G01X860394Y-1446483D01*
G01X862332Y-1434212D01*
G01X865912Y-1426640D01*
G01X869491Y-1419068D01*
G01X870366Y-1413589D01*
G01X871242Y-1408110D01*
G01X865595Y-1392031D01*
G01X860278Y-1383229D01*
G01X854961Y-1374426D01*
G01X840811Y-1359377D01*
G01X835316Y-1356572D01*
G01X829820Y-1353766D01*
G01X820701Y-1354744D01*
G01X811582Y-1355721D01*
G01X812440Y-1349453D01*
G01X813299Y-1343185D01*
G01X808595Y-1337723D01*
G01X803891Y-1332262D01*
G01X795996Y-1327516D01*
G01X788101Y-1322769D01*
G01X769739Y-1316099D01*
G01X755822Y-1316099D01*
G01X755822Y-1320873D01*
G01X762092Y-1330225D01*
G01X768362Y-1339577D01*
G01X770070Y-1345969D01*
G01X771778Y-1352360D01*
G01X769386Y-1356015D01*
G01X766992Y-1359669D01*
G01X758500Y-1359669D01*
G01X756108Y-1355314D01*
G01X753715Y-1350959D01*
G01X751017Y-1347407D01*
G01X748318Y-1343855D01*
G01X742590Y-1341252D01*
G01X736862Y-1338649D01*
G01X734541Y-1338618D01*
G01X732221Y-1338587D01*
G01X730627Y-1343154D01*
G01X729034Y-1347722D01*
G01X726977Y-1365291D01*
G01X724921Y-1382860D01*
G01X722848Y-1417294D01*
G01X720777Y-1451728D01*
G01X719344Y-1500217D01*
G01X717912Y-1548706D01*
G01X293067Y-1548706D01*
G01X302516Y-1534651D01*
G01X314132Y-1519191D01*
G01X325748Y-1503731D01*
G01X341818Y-1484456D01*
G01X357889Y-1465182D01*
G01X378357Y-1442995D01*
G01X398824Y-1420807D01*
G01X415459Y-1405230D01*
G01X432094Y-1389653D01*
G01X445436Y-1377823D01*
G01X458779Y-1365994D01*
G01X473526Y-1353913D01*
G01X488272Y-1341833D01*
G01X505828Y-1328763D01*
G01X523384Y-1315692D01*
G01X539759Y-1304709D01*
G01X556134Y-1293726D01*
G01X576275Y-1281236D01*
G01X596415Y-1268745D01*
G01X616982Y-1257371D01*
G01X637548Y-1245997D01*
G01X672256Y-1228575D01*
G01X690515Y-1220203D01*
G01X708772Y-1211831D01*
G01X738266Y-1200159D01*
G01X767760Y-1188486D01*
G01X789584Y-1180721D01*
G01X811409Y-1172955D01*
G01X857645Y-1158794D01*
G01X875201Y-1154542D01*
G01X892757Y-1150291D01*
G01X909271Y-1147483D01*
G01X925785Y-1144674D01*
G01X947191Y-1142593D01*
G01X968598Y-1140511D01*
G01X994580Y-1138763D01*
G01X1020563Y-1137013D01*
G01X1163818Y-1136900D01*
G01X1186289Y-1138742D01*
G01X1208760Y-1140584D01*
G01X1236147Y-1144050D01*
G01X1263534Y-1147515D01*
G01X1280388Y-1150378D01*
G01X1297241Y-1153242D01*
G01X1316903Y-1157411D01*
G01X1336566Y-1161581D01*
G01X1360442Y-1167816D01*
G01X1384318Y-1174052D01*
G01X1411002Y-1183030D01*
G01X1437687Y-1192008D01*
G01X1458052Y-1200068D01*
G01X1478416Y-1208128D01*
G01X1516337Y-1226858D01*
G01X1554257Y-1245588D01*
G01X1576026Y-1258781D01*
G01X1597796Y-1271975D01*
G01X1618862Y-1286101D01*
G01X1639929Y-1300227D01*
G01X1657299Y-1313199D01*
G01X1674668Y-1326170D01*
G01X1693815Y-1341847D01*
G01X1712961Y-1357525D01*
G01X1731916Y-1374409D01*
G01X1750871Y-1391292D01*
G01X1802077Y-1441503D01*
G01X1841256Y-1484054D01*
G01X1855656Y-1501622D01*
G01X1870055Y-1519191D01*
G01X1884767Y-1538868D01*
G01X1899478Y-1558544D01*
G01X1930997Y-1606331D01*
G01X1944596Y-1629521D01*
G01X1958195Y-1652712D01*
G01X1974706Y-1685741D01*
G01X1991217Y-1718770D01*
G01X2000106Y-1739852D01*
G01X2008995Y-1760934D01*
G01X2017276Y-1782594D01*
G01X2025558Y-1804253D01*
G01X2040919Y-1853048D01*
G01X2047909Y-1880076D01*
G01X2054898Y-1907104D01*
G01X2059120Y-1927048D01*
G01X2063342Y-1946992D01*
G01X2070369Y-1988622D01*
G01X2073839Y-2019542D01*
G01X2077308Y-2050463D01*
G01X2080600Y-2106682D01*
G01X2079817Y-2151658D01*
G01X2079034Y-2196633D01*
G01X2076764Y-2221229D01*
G01X2074494Y-2245825D01*
G01X2070999Y-2271826D01*
G01X2067504Y-2297828D01*
G01X2065359Y-2309774D01*
G01X2063214Y-2321721D01*
G01X2058977Y-2341925D01*
G01X2054739Y-2362128D01*
G01X2049170Y-2384792D01*
G01X2043600Y-2407455D01*
G01X2037399Y-2428538D01*
G01X2031197Y-2449620D01*
G01X2024907Y-2467991D01*
G01X2018617Y-2486363D01*
G01X2010959Y-2505939D01*
G01X2003300Y-2525516D01*
G01X1993843Y-2547301D01*
G01X1984385Y-2569086D01*
G01X1973859Y-2590168D01*
G01X1963332Y-2611250D01*
G01X1954880Y-2626710D01*
G01X1946427Y-2642171D01*
G01X1930928Y-2667469D01*
G01X1915429Y-2692768D01*
G01X1904149Y-2708931D01*
G01X1892870Y-2725094D01*
G01X1880878Y-2741257D01*
G01X1868887Y-2757420D01*
G01X1857026Y-2772178D01*
G01X1845164Y-2786935D01*
G01X1832440Y-2800990D01*
G01X1819716Y-2815045D01*
G01X1805091Y-2830867D01*
G01X1790466Y-2846689D01*
G01X1765758Y-2869698D01*
G01X1741051Y-2892707D01*
G01X1728447Y-2903477D01*
G01X1715843Y-2914246D01*
G01X1701762Y-2925255D01*
G01X1687681Y-2936265D01*
G01X1668721Y-2950108D01*
G01X1649761Y-2963951D01*
G01X1603242Y-2993956D01*
G01X1580856Y-3006842D01*
G01X1558471Y-3019728D01*
G01X1528977Y-3034247D01*
G01X1499483Y-3048767D01*
G01X1474905Y-3059261D01*
G01X1450327Y-3069755D01*
G01X1429260Y-3077542D01*
G01X1408193Y-3085329D01*
G01X1387829Y-3091680D01*
G01X1367464Y-3098030D01*
G01X1352015Y-3102327D01*
G01X1336566Y-3106624D01*
G01X1309039Y-3112906D01*
G01X1281512Y-3119189D01*
G01X1221400Y-3129065D01*
G01X1183480Y-3133346D01*
G01X1162413Y-3135022D01*
G01X1141346Y-3136699D01*
G37*
G04 Image End*

G04 Text Start*
G54D10*
G01X5229860Y-5163820D02*
G01X5229860Y-5350510D01*
G01X5229860Y-5163820D02*
G01X5309870Y-5163820D01*
G01X5336540Y-5172710D01*
G01X5345430Y-5181600D01*
G01X5354320Y-5199380D01*
G01X5354320Y-5217160D01*
G01X5345430Y-5234940D01*
G01X5336540Y-5243830D01*
G01X5309870Y-5252720D01*
G01X5229860Y-5252720D01*
G01X5292090Y-5252720D02*
G01X5354320Y-5350510D01*
G01X5417312Y-5279390D02*
G01X5523992Y-5279390D01*
G01X5523992Y-5261610D01*
G01X5515102Y-5243830D01*
G01X5506212Y-5234940D01*
G01X5488432Y-5226050D01*
G01X5461762Y-5226050D01*
G01X5443982Y-5234940D01*
G01X5426202Y-5252720D01*
G01X5417312Y-5279390D01*
G01X5417312Y-5297170D01*
G01X5426202Y-5323840D01*
G01X5443982Y-5341620D01*
G01X5461762Y-5350510D01*
G01X5488432Y-5350510D01*
G01X5506212Y-5341620D01*
G01X5523992Y-5323840D01*
G01X5684774Y-5252720D02*
G01X5675884Y-5234940D01*
G01X5649214Y-5226050D01*
G01X5622544Y-5226050D01*
G01X5595874Y-5234940D01*
G01X5586984Y-5252720D01*
G01X5595874Y-5270500D01*
G01X5613654Y-5279390D01*
G01X5658104Y-5288280D01*
G01X5675884Y-5297170D01*
G01X5684774Y-5314950D01*
G01X5684774Y-5323840D01*
G01X5675884Y-5341620D01*
G01X5649214Y-5350510D01*
G01X5622544Y-5350510D01*
G01X5595874Y-5341620D01*
G01X5586984Y-5323840D01*
G01X5747766Y-5163820D02*
G01X5756656Y-5172710D01*
G01X5765546Y-5163820D01*
G01X5756656Y-5154930D01*
G01X5747766Y-5163820D01*
G01X5756656Y-5226050D02*
G01X5756656Y-5350510D01*
G01X5926328Y-5252720D02*
G01X5917438Y-5234940D01*
G01X5890768Y-5226050D01*
G01X5864098Y-5226050D01*
G01X5837428Y-5234940D01*
G01X5828538Y-5252720D01*
G01X5837428Y-5270500D01*
G01X5855208Y-5279390D01*
G01X5899658Y-5288280D01*
G01X5917438Y-5297170D01*
G01X5926328Y-5314950D01*
G01X5926328Y-5323840D01*
G01X5917438Y-5341620D01*
G01X5890768Y-5350510D01*
G01X5864098Y-5350510D01*
G01X5837428Y-5341620D01*
G01X5828538Y-5323840D01*
G01X6015990Y-5163820D02*
G01X6015990Y-5314950D01*
G01X6024880Y-5341620D01*
G01X6042660Y-5350510D01*
G01X6060440Y-5350510D01*
G01X5989320Y-5226050D02*
G01X6051550Y-5226050D01*
G01X6167882Y-5226050D02*
G01X6150102Y-5234940D01*
G01X6132322Y-5252720D01*
G01X6123432Y-5279390D01*
G01X6123432Y-5297170D01*
G01X6132322Y-5323840D01*
G01X6150102Y-5341620D01*
G01X6167882Y-5350510D01*
G01X6194552Y-5350510D01*
G01X6212332Y-5341620D01*
G01X6230112Y-5323840D01*
G01X6239002Y-5297170D01*
G01X6239002Y-5279390D01*
G01X6230112Y-5252720D01*
G01X6212332Y-5234940D01*
G01X6194552Y-5226050D01*
G01X6167882Y-5226050D01*
G01X6301994Y-5226050D02*
G01X6301994Y-5350510D01*
G01X6301994Y-5279390D02*
G01X6310884Y-5252720D01*
G01X6328664Y-5234940D01*
G01X6346444Y-5226050D01*
G01X6373114Y-5226050D01*
G01X8423910Y-3328670D02*
G01X8415020Y-3310890D01*
G01X8397240Y-3293110D01*
G01X8379460Y-3284220D01*
G01X8343900Y-3284220D01*
G01X8326120Y-3293110D01*
G01X8308340Y-3310890D01*
G01X8299450Y-3328670D01*
G01X8290560Y-3355340D01*
G01X8290560Y-3399790D01*
G01X8299450Y-3426460D01*
G01X8308340Y-3444240D01*
G01X8326120Y-3462020D01*
G01X8343900Y-3470910D01*
G01X8379460Y-3470910D01*
G01X8397240Y-3462020D01*
G01X8415020Y-3444240D01*
G01X8423910Y-3426460D01*
G01X8593582Y-3346450D02*
G01X8593582Y-3470910D01*
G01X8593582Y-3373120D02*
G01X8575802Y-3355340D01*
G01X8558022Y-3346450D01*
G01X8531352Y-3346450D01*
G01X8513572Y-3355340D01*
G01X8495792Y-3373120D01*
G01X8486902Y-3399790D01*
G01X8486902Y-3417570D01*
G01X8495792Y-3444240D01*
G01X8513572Y-3462020D01*
G01X8531352Y-3470910D01*
G01X8558022Y-3470910D01*
G01X8575802Y-3462020D01*
G01X8593582Y-3444240D01*
G01X8656574Y-3346450D02*
G01X8656574Y-3533140D01*
G01X8656574Y-3373120D02*
G01X8674354Y-3355340D01*
G01X8692134Y-3346450D01*
G01X8718804Y-3346450D01*
G01X8736584Y-3355340D01*
G01X8754364Y-3373120D01*
G01X8763254Y-3399790D01*
G01X8763254Y-3417570D01*
G01X8754364Y-3444240D01*
G01X8736584Y-3462020D01*
G01X8718804Y-3470910D01*
G01X8692134Y-3470910D01*
G01X8674354Y-3462020D01*
G01X8656574Y-3444240D01*
G01X8932926Y-3346450D02*
G01X8932926Y-3470910D01*
G01X8932926Y-3373120D02*
G01X8915146Y-3355340D01*
G01X8897366Y-3346450D01*
G01X8870696Y-3346450D01*
G01X8852916Y-3355340D01*
G01X8835136Y-3373120D01*
G01X8826246Y-3399790D01*
G01X8826246Y-3417570D01*
G01X8835136Y-3444240D01*
G01X8852916Y-3462020D01*
G01X8870696Y-3470910D01*
G01X8897366Y-3470910D01*
G01X8915146Y-3462020D01*
G01X8932926Y-3444240D01*
G01X9102598Y-3373120D02*
G01X9084818Y-3355340D01*
G01X9067038Y-3346450D01*
G01X9040368Y-3346450D01*
G01X9022588Y-3355340D01*
G01X9004808Y-3373120D01*
G01X8995918Y-3399790D01*
G01X8995918Y-3417570D01*
G01X9004808Y-3444240D01*
G01X9022588Y-3462020D01*
G01X9040368Y-3470910D01*
G01X9067038Y-3470910D01*
G01X9084818Y-3462020D01*
G01X9102598Y-3444240D01*
G01X9165590Y-3284220D02*
G01X9174480Y-3293110D01*
G01X9183370Y-3284220D01*
G01X9174480Y-3275330D01*
G01X9165590Y-3284220D01*
G01X9174480Y-3346450D02*
G01X9174480Y-3470910D01*
G01X9273032Y-3284220D02*
G01X9273032Y-3435350D01*
G01X9281922Y-3462020D01*
G01X9299702Y-3470910D01*
G01X9317482Y-3470910D01*
G01X9246362Y-3346450D02*
G01X9308592Y-3346450D01*
G01X9424924Y-3346450D02*
G01X9407144Y-3355340D01*
G01X9389364Y-3373120D01*
G01X9380474Y-3399790D01*
G01X9380474Y-3417570D01*
G01X9389364Y-3444240D01*
G01X9407144Y-3462020D01*
G01X9424924Y-3470910D01*
G01X9451594Y-3470910D01*
G01X9469374Y-3462020D01*
G01X9487154Y-3444240D01*
G01X9496044Y-3417570D01*
G01X9496044Y-3399790D01*
G01X9487154Y-3373120D01*
G01X9469374Y-3355340D01*
G01X9451594Y-3346450D01*
G01X9424924Y-3346450D01*
G01X9559036Y-3346450D02*
G01X9559036Y-3470910D01*
G01X9559036Y-3399790D02*
G01X9567926Y-3373120D01*
G01X9585706Y-3355340D01*
G01X9603486Y-3346450D01*
G01X9630156Y-3346450D01*
G01X8785860Y-502920D02*
G01X8785860Y-689610D01*
G01X8785860Y-502920D02*
G01X8865870Y-502920D01*
G01X8892540Y-511810D01*
G01X8901430Y-520700D01*
G01X8910320Y-538480D01*
G01X8910320Y-556260D01*
G01X8901430Y-574040D01*
G01X8892540Y-582930D01*
G01X8865870Y-591820D01*
G01X8785860Y-591820D02*
G01X8865870Y-591820D01*
G01X8892540Y-600710D01*
G01X8901430Y-609600D01*
G01X8910320Y-627380D01*
G01X8910320Y-654050D01*
G01X8901430Y-671830D01*
G01X8892540Y-680720D01*
G01X8865870Y-689610D01*
G01X8785860Y-689610D01*
G01X8973312Y-502920D02*
G01X8973312Y-689610D01*
G01X9036304Y-565150D02*
G01X9036304Y-654050D01*
G01X9045194Y-680720D01*
G01X9062974Y-689610D01*
G01X9089644Y-689610D01*
G01X9107424Y-680720D01*
G01X9134094Y-654050D01*
G01X9134094Y-565150D02*
G01X9134094Y-689610D01*
G01X9197086Y-618490D02*
G01X9303766Y-618490D01*
G01X9303766Y-600710D01*
G01X9294876Y-582930D01*
G01X9285986Y-574040D01*
G01X9268206Y-565150D01*
G01X9241536Y-565150D01*
G01X9223756Y-574040D01*
G01X9205976Y-591820D01*
G01X9197086Y-618490D01*
G01X9197086Y-636270D01*
G01X9205976Y-662940D01*
G01X9223756Y-680720D01*
G01X9241536Y-689610D01*
G01X9268206Y-689610D01*
G01X9285986Y-680720D01*
G01X9303766Y-662940D01*
G01X9565894Y-502920D02*
G01X9565894Y-689610D01*
G01X9565894Y-502920D02*
G01X9645904Y-502920D01*
G01X9672574Y-511810D01*
G01X9681464Y-520700D01*
G01X9690354Y-538480D01*
G01X9690354Y-565150D01*
G01X9681464Y-582930D01*
G01X9672574Y-591820D01*
G01X9645904Y-600710D01*
G01X9565894Y-600710D01*
G01X9797796Y-565150D02*
G01X9780016Y-574040D01*
G01X9762236Y-591820D01*
G01X9753346Y-618490D01*
G01X9753346Y-636270D01*
G01X9762236Y-662940D01*
G01X9780016Y-680720D01*
G01X9797796Y-689610D01*
G01X9824466Y-689610D01*
G01X9842246Y-680720D01*
G01X9860026Y-662940D01*
G01X9868916Y-636270D01*
G01X9868916Y-618490D01*
G01X9860026Y-591820D01*
G01X9842246Y-574040D01*
G01X9824466Y-565150D01*
G01X9797796Y-565150D01*
G01X9958578Y-502920D02*
G01X9958578Y-654050D01*
G01X9967468Y-680720D01*
G01X9985248Y-689610D01*
G01X10003028Y-689610D01*
G01X9931908Y-565150D02*
G01X9994138Y-565150D01*
G01X5356860Y-502920D02*
G01X5427980Y-591820D01*
G01X5427980Y-689610D01*
G01X5499100Y-502920D02*
G01X5427980Y-591820D01*
G01X5562092Y-618490D02*
G01X5668772Y-618490D01*
G01X5668772Y-600710D01*
G01X5659882Y-582930D01*
G01X5650992Y-574040D01*
G01X5633212Y-565150D01*
G01X5606542Y-565150D01*
G01X5588762Y-574040D01*
G01X5570982Y-591820D01*
G01X5562092Y-618490D01*
G01X5562092Y-636270D01*
G01X5570982Y-662940D01*
G01X5588762Y-680720D01*
G01X5606542Y-689610D01*
G01X5633212Y-689610D01*
G01X5650992Y-680720D01*
G01X5668772Y-662940D01*
G01X5731764Y-502920D02*
G01X5731764Y-689610D01*
G01X5794756Y-502920D02*
G01X5794756Y-689610D01*
G01X5902198Y-565150D02*
G01X5884418Y-574040D01*
G01X5866638Y-591820D01*
G01X5857748Y-618490D01*
G01X5857748Y-636270D01*
G01X5866638Y-662940D01*
G01X5884418Y-680720D01*
G01X5902198Y-689610D01*
G01X5928868Y-689610D01*
G01X5946648Y-680720D01*
G01X5964428Y-662940D01*
G01X5973318Y-636270D01*
G01X5973318Y-618490D01*
G01X5964428Y-591820D01*
G01X5946648Y-574040D01*
G01X5928868Y-565150D01*
G01X5902198Y-565150D01*
G01X6036310Y-565150D02*
G01X6071870Y-689610D01*
G01X6107430Y-565150D02*
G01X6071870Y-689610D01*
G01X6107430Y-565150D02*
G01X6142990Y-689610D01*
G01X6178550Y-565150D02*
G01X6142990Y-689610D01*
G01X6440678Y-502920D02*
G01X6440678Y-689610D01*
G01X6440678Y-502920D02*
G01X6520688Y-502920D01*
G01X6547358Y-511810D01*
G01X6556248Y-520700D01*
G01X6565138Y-538480D01*
G01X6565138Y-565150D01*
G01X6556248Y-582930D01*
G01X6547358Y-591820D01*
G01X6520688Y-600710D01*
G01X6440678Y-600710D01*
G01X6672580Y-565150D02*
G01X6654800Y-574040D01*
G01X6637020Y-591820D01*
G01X6628130Y-618490D01*
G01X6628130Y-636270D01*
G01X6637020Y-662940D01*
G01X6654800Y-680720D01*
G01X6672580Y-689610D01*
G01X6699250Y-689610D01*
G01X6717030Y-680720D01*
G01X6734810Y-662940D01*
G01X6743700Y-636270D01*
G01X6743700Y-618490D01*
G01X6734810Y-591820D01*
G01X6717030Y-574040D01*
G01X6699250Y-565150D01*
G01X6672580Y-565150D01*
G01X6833362Y-502920D02*
G01X6833362Y-654050D01*
G01X6842252Y-680720D01*
G01X6860032Y-689610D01*
G01X6877812Y-689610D01*
G01X6806692Y-565150D02*
G01X6868922Y-565150D01*
G01X1889760Y-464820D02*
G01X1889760Y-651510D01*
G01X1889760Y-464820D02*
G01X1969770Y-464820D01*
G01X1996440Y-473710D01*
G01X2005330Y-482600D01*
G01X2014220Y-500380D01*
G01X2014220Y-518160D01*
G01X2005330Y-535940D01*
G01X1996440Y-544830D01*
G01X1969770Y-553720D01*
G01X1889760Y-553720D01*
G01X1951990Y-553720D02*
G01X2014220Y-651510D01*
G01X2077212Y-580390D02*
G01X2183892Y-580390D01*
G01X2183892Y-562610D01*
G01X2175002Y-544830D01*
G01X2166112Y-535940D01*
G01X2148332Y-527050D01*
G01X2121662Y-527050D01*
G01X2103882Y-535940D01*
G01X2086102Y-553720D01*
G01X2077212Y-580390D01*
G01X2077212Y-598170D01*
G01X2086102Y-624840D01*
G01X2103882Y-642620D01*
G01X2121662Y-651510D01*
G01X2148332Y-651510D01*
G01X2166112Y-642620D01*
G01X2183892Y-624840D01*
G01X2353564Y-464820D02*
G01X2353564Y-651510D01*
G01X2353564Y-553720D02*
G01X2335784Y-535940D01*
G01X2318004Y-527050D01*
G01X2291334Y-527050D01*
G01X2273554Y-535940D01*
G01X2255774Y-553720D01*
G01X2246884Y-580390D01*
G01X2246884Y-598170D01*
G01X2255774Y-624840D01*
G01X2273554Y-642620D01*
G01X2291334Y-651510D01*
G01X2318004Y-651510D01*
G01X2335784Y-642620D01*
G01X2353564Y-624840D01*
G01X2615692Y-464820D02*
G01X2615692Y-651510D01*
G01X2615692Y-464820D02*
G01X2695702Y-464820D01*
G01X2722372Y-473710D01*
G01X2731262Y-482600D01*
G01X2740152Y-500380D01*
G01X2740152Y-527050D01*
G01X2731262Y-544830D01*
G01X2722372Y-553720D01*
G01X2695702Y-562610D01*
G01X2615692Y-562610D01*
G01X2847594Y-527050D02*
G01X2829814Y-535940D01*
G01X2812034Y-553720D01*
G01X2803144Y-580390D01*
G01X2803144Y-598170D01*
G01X2812034Y-624840D01*
G01X2829814Y-642620D01*
G01X2847594Y-651510D01*
G01X2874264Y-651510D01*
G01X2892044Y-642620D01*
G01X2909824Y-624840D01*
G01X2918714Y-598170D01*
G01X2918714Y-580390D01*
G01X2909824Y-553720D01*
G01X2892044Y-535940D01*
G01X2874264Y-527050D01*
G01X2847594Y-527050D01*
G01X3008376Y-464820D02*
G01X3008376Y-615950D01*
G01X3017266Y-642620D01*
G01X3035046Y-651510D01*
G01X3052826Y-651510D01*
G01X2981706Y-527050D02*
G01X3043936Y-527050D01*
G01X4683760Y-2661920D02*
G01X4683760Y-2848610D01*
G01X4683760Y-2661920D02*
G01X4763770Y-2661920D01*
G01X4790440Y-2670810D01*
G01X4799330Y-2679700D01*
G01X4808220Y-2697480D01*
G01X4808220Y-2724150D01*
G01X4799330Y-2741930D01*
G01X4790440Y-2750820D01*
G01X4763770Y-2759710D01*
G01X4683760Y-2759710D01*
G01X4871212Y-2724150D02*
G01X4871212Y-2848610D01*
G01X4871212Y-2777490D02*
G01X4880102Y-2750820D01*
G01X4897882Y-2733040D01*
G01X4915662Y-2724150D01*
G01X4942332Y-2724150D01*
G01X5049774Y-2724150D02*
G01X5031994Y-2733040D01*
G01X5014214Y-2750820D01*
G01X5005324Y-2777490D01*
G01X5005324Y-2795270D01*
G01X5014214Y-2821940D01*
G01X5031994Y-2839720D01*
G01X5049774Y-2848610D01*
G01X5076444Y-2848610D01*
G01X5094224Y-2839720D01*
G01X5112004Y-2821940D01*
G01X5120894Y-2795270D01*
G01X5120894Y-2777490D01*
G01X5112004Y-2750820D01*
G01X5094224Y-2733040D01*
G01X5076444Y-2724150D01*
G01X5049774Y-2724150D01*
G01X5383022Y-2661920D02*
G01X5383022Y-2848610D01*
G01X5383022Y-2661920D02*
G01X5454142Y-2848610D01*
G01X5525262Y-2661920D02*
G01X5454142Y-2848610D01*
G01X5525262Y-2661920D02*
G01X5525262Y-2848610D01*
G01X5588254Y-2661920D02*
G01X5597144Y-2670810D01*
G01X5606034Y-2661920D01*
G01X5597144Y-2653030D01*
G01X5588254Y-2661920D01*
G01X5597144Y-2724150D02*
G01X5597144Y-2848610D01*
G01X5669026Y-2724150D02*
G01X5669026Y-2848610D01*
G01X5669026Y-2759710D02*
G01X5695696Y-2733040D01*
G01X5713476Y-2724150D01*
G01X5740146Y-2724150D01*
G01X5757926Y-2733040D01*
G01X5766816Y-2759710D01*
G01X5766816Y-2848610D01*
G01X5829808Y-2661920D02*
G01X5838698Y-2670810D01*
G01X5847588Y-2661920D01*
G01X5838698Y-2653030D01*
G01X5829808Y-2661920D01*
G01X5838698Y-2724150D02*
G01X5838698Y-2848610D01*
G01X10345420Y-3837940D02*
G01X10532110Y-3837940D01*
G01X10345420Y-3837940D02*
G01X10345420Y-3757930D01*
G01X10354310Y-3731260D01*
G01X10363200Y-3722370D01*
G01X10380980Y-3713480D01*
G01X10407650Y-3713480D01*
G01X10425430Y-3722370D01*
G01X10434320Y-3731260D01*
G01X10443210Y-3757930D01*
G01X10443210Y-3837940D01*
G01X10407650Y-3606038D02*
G01X10416540Y-3623818D01*
G01X10434320Y-3641598D01*
G01X10460990Y-3650488D01*
G01X10478770Y-3650488D01*
G01X10505440Y-3641598D01*
G01X10523220Y-3623818D01*
G01X10532110Y-3606038D01*
G01X10532110Y-3579368D01*
G01X10523220Y-3561588D01*
G01X10505440Y-3543808D01*
G01X10478770Y-3534918D01*
G01X10460990Y-3534918D01*
G01X10434320Y-3543808D01*
G01X10416540Y-3561588D01*
G01X10407650Y-3579368D01*
G01X10407650Y-3606038D01*
G01X10407650Y-3471926D02*
G01X10532110Y-3436366D01*
G01X10407650Y-3400806D02*
G01X10532110Y-3436366D01*
G01X10407650Y-3400806D02*
G01X10532110Y-3365246D01*
G01X10407650Y-3329686D02*
G01X10532110Y-3365246D01*
G01X10460990Y-3266694D02*
G01X10460990Y-3160014D01*
G01X10443210Y-3160014D01*
G01X10425430Y-3168904D01*
G01X10416540Y-3177794D01*
G01X10407650Y-3195574D01*
G01X10407650Y-3222244D01*
G01X10416540Y-3240024D01*
G01X10434320Y-3257804D01*
G01X10460990Y-3266694D01*
G01X10478770Y-3266694D01*
G01X10505440Y-3257804D01*
G01X10523220Y-3240024D01*
G01X10532110Y-3222244D01*
G01X10532110Y-3195574D01*
G01X10523220Y-3177794D01*
G01X10505440Y-3160014D01*
G01X10407650Y-3097022D02*
G01X10532110Y-3097022D01*
G01X10460990Y-3097022D02*
G01X10434320Y-3088132D01*
G01X10416540Y-3070352D01*
G01X10407650Y-3052572D01*
G01X10407650Y-3025902D01*
G01X10345420Y-2674874D02*
G01X10487660Y-2674874D01*
G01X10514330Y-2683764D01*
G01X10523220Y-2692654D01*
G01X10532110Y-2710434D01*
G01X10532110Y-2728214D01*
G01X10523220Y-2745994D01*
G01X10514330Y-2754884D01*
G01X10487660Y-2763774D01*
G01X10469880Y-2763774D01*
G01X10407650Y-2505202D02*
G01X10532110Y-2505202D01*
G01X10434320Y-2505202D02*
G01X10416540Y-2522982D01*
G01X10407650Y-2540762D01*
G01X10407650Y-2567432D01*
G01X10416540Y-2585212D01*
G01X10434320Y-2602992D01*
G01X10460990Y-2611882D01*
G01X10478770Y-2611882D01*
G01X10505440Y-2602992D01*
G01X10523220Y-2585212D01*
G01X10532110Y-2567432D01*
G01X10532110Y-2540762D01*
G01X10523220Y-2522982D01*
G01X10505440Y-2505202D01*
G01X10434320Y-2335530D02*
G01X10416540Y-2353310D01*
G01X10407650Y-2371090D01*
G01X10407650Y-2397760D01*
G01X10416540Y-2415540D01*
G01X10434320Y-2433320D01*
G01X10460990Y-2442210D01*
G01X10478770Y-2442210D01*
G01X10505440Y-2433320D01*
G01X10523220Y-2415540D01*
G01X10532110Y-2397760D01*
G01X10532110Y-2371090D01*
G01X10523220Y-2353310D01*
G01X10505440Y-2335530D01*
G01X10345420Y-2272538D02*
G01X10532110Y-2272538D01*
G01X10407650Y-2183638D02*
G01X10496550Y-2272538D01*
G01X10460990Y-2236978D02*
G01X10532110Y-2174748D01*
G01X2669291Y-4998720D02*
G01X2669291Y-5185410D01*
G01X2669291Y-5185410D02*
G01X2775971Y-5185410D01*
G01X2838963Y-4998720D02*
G01X2838963Y-5185410D01*
G01X2838963Y-4998720D02*
G01X2954533Y-4998720D01*
G01X2838963Y-5087620D02*
G01X2910083Y-5087620D01*
G01X2838963Y-5185410D02*
G01X2954533Y-5185410D01*
G01X3017525Y-4998720D02*
G01X3017525Y-5185410D01*
G01X3017525Y-4998720D02*
G01X3079755Y-4998720D01*
G01X3106425Y-5007610D01*
G01X3124205Y-5025390D01*
G01X3133095Y-5043170D01*
G01X3141985Y-5069840D01*
G01X3141985Y-5114290D01*
G01X3133095Y-5140960D01*
G01X3124205Y-5158740D01*
G01X3106425Y-5176520D01*
G01X3079755Y-5185410D01*
G01X3017525Y-5185410D01*
G01X3528573Y-5025390D02*
G01X3510793Y-5007610D01*
G01X3484123Y-4998720D01*
G01X3448563Y-4998720D01*
G01X3421893Y-5007610D01*
G01X3404113Y-5025390D01*
G01X3404113Y-5043170D01*
G01X3413003Y-5060950D01*
G01X3421893Y-5069840D01*
G01X3439673Y-5078730D01*
G01X3493013Y-5096510D01*
G01X3510793Y-5105400D01*
G01X3519683Y-5114290D01*
G01X3528573Y-5132070D01*
G01X3528573Y-5158740D01*
G01X3510793Y-5176520D01*
G01X3484123Y-5185410D01*
G01X3448563Y-5185410D01*
G01X3421893Y-5176520D01*
G01X3404113Y-5158740D01*
G01X3618235Y-4998720D02*
G01X3618235Y-5149850D01*
G01X3627125Y-5176520D01*
G01X3644905Y-5185410D01*
G01X3662685Y-5185410D01*
G01X3591565Y-5060950D02*
G01X3653795Y-5060950D01*
G01X3725677Y-5060950D02*
G01X3725677Y-5185410D01*
G01X3725677Y-5114290D02*
G01X3734567Y-5087620D01*
G01X3752347Y-5069840D01*
G01X3770127Y-5060950D01*
G01X3796797Y-5060950D01*
G01X3859789Y-4998720D02*
G01X3868679Y-5007610D01*
G01X3877569Y-4998720D01*
G01X3868679Y-4989830D01*
G01X3859789Y-4998720D01*
G01X3868679Y-5060950D02*
G01X3868679Y-5185410D01*
G01X3940561Y-5060950D02*
G01X3940561Y-5247640D01*
G01X3940561Y-5087620D02*
G01X3958341Y-5069840D01*
G01X3976121Y-5060950D01*
G01X4002791Y-5060950D01*
G01X4020571Y-5069840D01*
G01X4038351Y-5087620D01*
G01X4047241Y-5114290D01*
G01X4047241Y-5132070D01*
G01X4038351Y-5158740D01*
G01X4020571Y-5176520D01*
G01X4002791Y-5185410D01*
G01X3976121Y-5185410D01*
G01X3958341Y-5176520D01*
G01X3940561Y-5158740D01*
G36*
G01X-529706Y-1135833D02*
G01X-530464Y-1157803D01*
G01X-663797Y-1159318D01*
G01X-800161Y-1158561D01*
G01X-803949Y-1157803D01*
G01X-803949Y-1138864D01*
G01X-803191Y-1116136D01*
G01X-802433Y-1112348D01*
G01X-788797Y-1112348D01*
G01X-778759Y-1111970D01*
G01X-775918Y-1110833D01*
G01X-778948Y-1105530D01*
G01X-783494Y-1098712D01*
G01X-787282Y-1093409D01*
G01X-790312Y-1089621D01*
G01X-793342Y-1084318D01*
G01X-799403Y-1072197D01*
G01X-802433Y-1065379D01*
G01X-805464Y-1057045D01*
G01X-807736Y-1049470D01*
G01X-808494Y-1043409D01*
G01X-810009Y-1036591D01*
G01X-811524Y-1023712D01*
G01X-810767Y-1010076D01*
G01X-809252Y-1004015D01*
G01X-807736Y-996439D01*
G01X-805464Y-986591D01*
G01X-802433Y-978257D01*
G01X-798645Y-971439D01*
G01X-794100Y-964621D01*
G01X-789555Y-959318D01*
G01X-781979Y-951742D01*
G01X-775918Y-947197D01*
G01X-768342Y-942651D01*
G01X-760767Y-939621D01*
G01X-753948Y-936591D01*
G01X-746373Y-934318D01*
G01X-739555Y-932803D01*
G01X-727433Y-931288D01*
G01X-631221Y-930530D01*
G01X-533494Y-931288D01*
G01X-529706Y-932045D01*
G01X-529706Y-949470D01*
G01X-530464Y-972197D01*
G01X-531221Y-977500D01*
G01X-619858Y-977500D01*
G01X-710767Y-978257D01*
G01X-718342Y-979015D01*
G01X-728949Y-980530D01*
G01X-736524Y-982803D01*
G01X-742585Y-985076D01*
G01X-747888Y-988106D01*
G01X-751676Y-990379D01*
G01X-756221Y-994924D01*
G01X-760009Y-1000985D01*
G01X-763039Y-1007045D01*
G01X-765312Y-1013106D01*
G01X-766827Y-1029773D01*
G01X-766827Y-1033561D01*
G01X-766070Y-1040379D01*
G01X-765312Y-1047954D01*
G01X-763797Y-1055530D01*
G01X-761524Y-1063106D01*
G01X-755464Y-1076742D01*
G01X-748645Y-1090379D01*
G01X-744100Y-1097954D01*
G01X-739555Y-1104773D01*
G01X-735767Y-1110076D01*
G01X-709630Y-1111780D01*
G01X-634251Y-1112348D01*
G01X-531979Y-1113864D01*
G01X-530274Y-1120114D01*
G01X-529706Y-1135833D01*
G37*
G36*
G01X-429706Y-503258D02*
G01X-433494Y-501742D01*
G01X-445615Y-495682D01*
G01X-534251Y-456288D01*
G01X-540312Y-454015D01*
G01X-545615Y-454015D01*
G01X-550918Y-455530D01*
G01X-572130Y-464621D01*
G01X-578191Y-466894D01*
G01X-588797Y-471439D01*
G01X-595615Y-474469D01*
G01X-610767Y-480530D01*
G01X-624403Y-486591D01*
G01X-631979Y-489621D01*
G01X-645615Y-495682D01*
G01X-653191Y-498712D01*
G01X-660009Y-501742D01*
G01X-667585Y-504773D01*
G01X-675918Y-507803D01*
G01X-689555Y-513864D01*
G01X-697130Y-516894D01*
G01X-703949Y-519924D01*
G01X-710009Y-522197D01*
G01X-715312Y-524470D01*
G01X-728949Y-530530D01*
G01X-735009Y-532803D01*
G01X-742585Y-535833D01*
G01X-750918Y-539621D01*
G01X-758494Y-542651D01*
G01X-764554Y-544924D01*
G01X-791070Y-556288D01*
G01X-797888Y-559318D01*
G01X-802433Y-560833D01*
G01X-802433Y-536591D01*
G01X-801676Y-517841D01*
G01X-799403Y-510076D01*
G01X-792585Y-506288D01*
G01X-785009Y-503258D01*
G01X-778191Y-500227D01*
G01X-766070Y-495682D01*
G01X-759251Y-492651D01*
G01X-751676Y-489621D01*
G01X-744858Y-486591D01*
G01X-738797Y-484318D01*
G01X-728191Y-479773D01*
G01X-722130Y-477500D01*
G01X-708494Y-471439D01*
G01X-693343Y-465379D01*
G01X-686524Y-462348D01*
G01X-678949Y-459318D01*
G01X-672130Y-456288D01*
G01X-660009Y-451742D01*
G01X-653191Y-448712D01*
G01X-645615Y-445682D01*
G01X-638797Y-442651D01*
G01X-631221Y-439621D01*
G01X-624403Y-436591D01*
G01X-618342Y-434318D01*
G01X-607736Y-429773D01*
G01X-605274Y-428636D01*
G01X-605464Y-426742D01*
G01X-610767Y-422954D01*
G01X-618342Y-419924D01*
G01X-625161Y-416894D01*
G01X-631221Y-414621D01*
G01X-652433Y-405530D01*
G01X-658494Y-403258D01*
G01X-669100Y-398712D01*
G01X-675918Y-395682D01*
G01X-691070Y-389621D01*
G01X-704706Y-383561D01*
G01X-712282Y-380530D01*
G01X-719100Y-377500D01*
G01X-731221Y-372955D01*
G01X-741827Y-368409D01*
G01X-748645Y-365379D01*
G01X-756221Y-362348D01*
G01X-763039Y-359318D01*
G01X-769100Y-357045D01*
G01X-785009Y-350227D01*
G01X-791827Y-347197D01*
G01X-799403Y-344166D01*
G01X-801676Y-337538D01*
G01X-802433Y-320682D01*
G01X-801676Y-297197D01*
G01X-798645Y-296439D01*
G01X-794100Y-298712D01*
G01X-772888Y-307803D01*
G01X-766070Y-310833D01*
G01X-758494Y-313863D01*
G01X-744858Y-319924D01*
G01X-738797Y-322197D01*
G01X-659251Y-356288D01*
G01X-652433Y-359318D01*
G01X-644857Y-362348D01*
G01X-631221Y-368409D01*
G01X-625161Y-370682D01*
G01X-535009Y-409318D01*
G01X-528191Y-412348D01*
G01X-520615Y-415379D01*
G01X-506979Y-421439D01*
G01X-500918Y-423712D01*
G01X-479706Y-432803D01*
G01X-473645Y-435076D01*
G01X-457736Y-441894D01*
G01X-453191Y-444166D01*
G01X-439555Y-450227D01*
G01X-433494Y-452500D01*
G01X-429706Y-453257D01*
G01X-429706Y-503258D01*
G37*
G36*
G01X-426676Y-743409D02*
G01X-427433Y-755530D01*
G01X-428191Y-768409D01*
G01X-428949Y-784318D01*
G01X-430464Y-790379D01*
G01X-432736Y-806288D01*
G01X-434252Y-814621D01*
G01X-436524Y-823712D01*
G01X-439555Y-830530D01*
G01X-445615Y-832803D01*
G01X-459252Y-833560D01*
G01X-480464Y-832803D01*
G01X-485009Y-829773D01*
G01X-484252Y-825227D01*
G01X-479706Y-810076D01*
G01X-477433Y-803257D01*
G01X-475161Y-795682D01*
G01X-473645Y-789621D01*
G01X-472888Y-784318D01*
G01X-469858Y-770682D01*
G01X-469100Y-752500D01*
G01X-469858Y-729773D01*
G01X-471373Y-719166D01*
G01X-473645Y-710076D01*
G01X-476676Y-702500D01*
G01X-478948Y-696439D01*
G01X-481979Y-691136D01*
G01X-492585Y-680530D01*
G01X-496373Y-677500D01*
G01X-500918Y-675227D01*
G01X-506221Y-672954D01*
G01X-512282Y-670682D01*
G01X-521373Y-669167D01*
G01X-528948Y-667651D01*
G01X-548645Y-666894D01*
G01X-566070Y-666894D01*
G01X-564555Y-669924D01*
G01X-561524Y-674470D01*
G01X-557736Y-679773D01*
G01X-553949Y-685833D01*
G01X-547888Y-696439D01*
G01X-543342Y-705530D01*
G01X-541070Y-710833D01*
G01X-538797Y-716894D01*
G01X-537282Y-722954D01*
G01X-536524Y-728257D01*
G01X-535009Y-740379D01*
G01X-534251Y-748712D01*
G01X-535009Y-761591D01*
G01X-536524Y-773712D01*
G01X-538039Y-781288D01*
G01X-539555Y-786591D01*
G01X-541827Y-793409D01*
G01X-544858Y-800227D01*
G01X-547888Y-806288D01*
G01X-550918Y-810833D01*
G01X-553191Y-814621D01*
G01X-556221Y-818409D01*
G01X-571373Y-833560D01*
G01X-575918Y-836591D01*
G01X-588039Y-844166D01*
G01X-594100Y-847197D01*
G01X-600918Y-850227D01*
G01X-614555Y-854773D01*
G01X-628191Y-857803D01*
G01X-636524Y-859318D01*
G01X-644100Y-860076D01*
G01X-666070Y-860833D01*
G01X-688040Y-860076D01*
G01X-695615Y-859318D01*
G01X-705464Y-857803D01*
G01X-713797Y-855530D01*
G01X-725918Y-852500D01*
G01X-731979Y-850227D01*
G01X-737282Y-847954D01*
G01X-743342Y-844924D01*
G01X-750161Y-841136D01*
G01X-755464Y-838106D01*
G01X-766070Y-830530D01*
G01X-771373Y-825985D01*
G01X-777433Y-820682D01*
G01X-781221Y-816136D01*
G01X-785009Y-812348D01*
G01X-788797Y-807803D01*
G01X-796373Y-795682D01*
G01X-799403Y-789621D01*
G01X-805464Y-775985D01*
G01X-806979Y-769924D01*
G01X-808494Y-764621D01*
G01X-810009Y-757045D01*
G01X-810767Y-749470D01*
G01X-811524Y-742651D01*
G01X-810767Y-735833D01*
G01X-810067Y-726742D01*
G01X-769100Y-726742D01*
G01X-768342Y-740379D01*
G01X-767585Y-747197D01*
G01X-766070Y-754773D01*
G01X-763797Y-763106D01*
G01X-760009Y-772197D01*
G01X-755464Y-779015D01*
G01X-751676Y-783561D01*
G01X-743342Y-791894D01*
G01X-737282Y-796439D01*
G01X-730464Y-800985D01*
G01X-723645Y-804015D01*
G01X-717585Y-806288D01*
G01X-710767Y-808560D01*
G01X-704706Y-810076D01*
G01X-692585Y-811591D01*
G01X-672130Y-813863D01*
G01X-658494Y-812348D01*
G01X-647130Y-811591D01*
G01X-638039Y-810076D01*
G01X-631979Y-809318D01*
G01X-625918Y-807803D01*
G01X-619858Y-805530D01*
G01X-612282Y-803257D01*
G01X-606221Y-800227D01*
G01X-600918Y-797197D01*
G01X-596373Y-793409D01*
G01X-588797Y-785833D01*
G01X-585767Y-781288D01*
G01X-581221Y-770682D01*
G01X-579706Y-765379D01*
G01X-579706Y-765379D01*
G01X-578949Y-761591D01*
G01X-578191Y-748712D01*
G01X-578949Y-734318D01*
G01X-580464Y-722197D01*
G01X-581979Y-716136D01*
G01X-584252Y-707803D01*
G01X-587282Y-699470D01*
G01X-597130Y-679773D01*
G01X-600918Y-674470D01*
G01X-603948Y-669924D01*
G01X-623645Y-667651D01*
G01X-679706Y-666894D01*
G01X-735577Y-667462D01*
G01X-754706Y-669167D01*
G01X-756979Y-673712D01*
G01X-759251Y-679015D01*
G01X-761524Y-685076D01*
G01X-766070Y-701742D01*
G01X-767585Y-707803D01*
G01X-768342Y-713106D01*
G01X-769100Y-726742D01*
G01X-810067Y-726742D01*
G01X-810009Y-725985D01*
G01X-809252Y-714621D01*
G01X-806979Y-705530D01*
G01X-803949Y-696439D01*
G01X-799403Y-684318D01*
G01X-796373Y-678257D01*
G01X-794100Y-672954D01*
G01X-794858Y-667651D01*
G01X-800161Y-664621D01*
G01X-803949Y-663864D01*
G01X-803949Y-645682D01*
G01X-803191Y-623712D01*
G01X-802433Y-619924D01*
G01X-682736Y-619924D01*
G01X-560767Y-620682D01*
G01X-548645Y-621439D01*
G01X-533494Y-622197D01*
G01X-525918Y-623712D01*
G01X-519100Y-624470D01*
G01X-512282Y-625985D01*
G01X-497130Y-630530D01*
G01X-491070Y-632803D01*
G01X-483494Y-635833D01*
G01X-475918Y-640379D01*
G01X-469100Y-644924D01*
G01X-463797Y-648712D01*
G01X-452433Y-660076D01*
G01X-444858Y-670682D01*
G01X-441827Y-675985D01*
G01X-438797Y-682045D01*
G01X-434252Y-694167D01*
G01X-431979Y-700985D01*
G01X-430464Y-708560D01*
G01X-428949Y-714621D01*
G01X-427433Y-729773D01*
G01X-426676Y-743409D01*
G37*
G36*
G01X-529706Y-1589621D02*
G01X-530464Y-1610833D01*
G01X-720615Y-1612348D01*
G01X-910009Y-1612348D01*
G01X-910009Y-1592651D01*
G01X-909251Y-1569167D01*
G01X-908494Y-1565379D01*
G01X-841827Y-1565379D01*
G01X-792017Y-1565000D01*
G01X-775918Y-1563864D01*
G01X-778948Y-1558561D01*
G01X-786524Y-1547954D01*
G01X-790312Y-1541894D01*
G01X-792585Y-1537348D01*
G01X-794858Y-1533561D01*
G01X-797888Y-1528258D01*
G01X-800918Y-1522197D01*
G01X-805464Y-1510076D01*
G01X-808494Y-1499470D01*
G01X-810009Y-1488864D01*
G01X-810767Y-1478257D01*
G01X-810767Y-1474469D01*
G01X-810009Y-1463106D01*
G01X-808494Y-1450227D01*
G01X-806221Y-1442651D01*
G01X-803949Y-1435833D01*
G01X-800918Y-1429773D01*
G01X-796373Y-1422197D01*
G01X-791070Y-1414621D01*
G01X-785009Y-1407803D01*
G01X-777433Y-1402500D01*
G01X-770615Y-1397955D01*
G01X-763797Y-1394167D01*
G01X-756221Y-1391136D01*
G01X-750161Y-1388864D01*
G01X-744858Y-1388106D01*
G01X-738797Y-1386591D01*
G01X-725918Y-1385076D01*
G01X-713797Y-1384318D01*
G01X-622888Y-1383561D01*
G01X-531979Y-1385076D01*
G01X-530274Y-1390379D01*
G01X-529706Y-1403258D01*
G01X-530464Y-1425227D01*
G01X-531221Y-1430530D01*
G01X-616827Y-1430530D01*
G01X-704706Y-1431288D01*
G01X-711524Y-1432045D01*
G01X-721373Y-1432803D01*
G01X-731979Y-1435076D01*
G01X-739555Y-1437348D01*
G01X-744858Y-1439621D01*
G01X-749403Y-1442651D01*
G01X-753191Y-1445682D01*
G01X-756979Y-1449470D01*
G01X-760009Y-1454015D01*
G01X-763039Y-1460833D01*
G01X-765312Y-1470682D01*
G01X-766827Y-1481288D01*
G01X-766827Y-1490379D01*
G01X-763797Y-1508561D01*
G01X-761524Y-1516894D01*
G01X-758494Y-1524470D01*
G01X-755464Y-1531288D01*
G01X-749403Y-1541894D01*
G01X-745615Y-1549470D01*
G01X-740312Y-1557045D01*
G01X-736524Y-1563106D01*
G01X-710767Y-1564810D01*
G01X-558873Y-1565947D01*
G01X-531979Y-1567651D01*
G01X-530274Y-1574280D01*
G01X-529706Y-1589621D01*
G37*
G36*
G01X-849403Y-1298712D02*
G01X-869100Y-1298712D01*
G01X-892585Y-1297954D01*
G01X-896373Y-1297197D01*
G01X-896373Y-1275227D01*
G01X-895615Y-1249470D01*
G01X-894857Y-1245682D01*
G01X-875918Y-1245682D01*
G01X-853191Y-1246439D01*
G01X-849403Y-1247197D01*
G01X-849403Y-1298712D01*
G37*
G36*
G01X-529706Y-1811591D02*
G01X-530464Y-1834318D01*
G01X-687282Y-1835076D01*
G01X-847130Y-1835833D01*
G01X-850918Y-1836591D01*
G01X-850918Y-1965379D01*
G01X-870615Y-1965379D01*
G01X-892585Y-1963863D01*
G01X-894289Y-1925985D01*
G01X-894857Y-1815379D01*
G01X-894100Y-1663106D01*
G01X-893342Y-1657803D01*
G01X-850918Y-1657803D01*
G01X-850918Y-1718409D01*
G01X-850161Y-1782803D01*
G01X-849403Y-1786591D01*
G01X-691827Y-1786591D01*
G01X-531979Y-1788106D01*
G01X-530274Y-1794735D01*
G01X-529706Y-1811591D01*
G37*
G36*
G01X-525160Y-2029773D02*
G01X-525918Y-2044924D01*
G01X-527433Y-2052500D01*
G01X-528948Y-2061591D01*
G01X-531221Y-2068409D01*
G01X-534251Y-2075227D01*
G01X-537282Y-2081288D01*
G01X-541070Y-2086591D01*
G01X-544858Y-2091136D01*
G01X-550161Y-2097197D01*
G01X-557736Y-2102500D01*
G01X-563797Y-2106288D01*
G01X-575918Y-2110833D01*
G01X-582736Y-2113106D01*
G01X-591070Y-2114621D01*
G01X-597130Y-2116136D01*
G01X-681221Y-2116894D01*
G01X-763039Y-2116894D01*
G01X-763039Y-2126742D01*
G01X-763797Y-2141894D01*
G01X-764554Y-2147197D01*
G01X-780464Y-2147197D01*
G01X-800161Y-2146439D01*
G01X-803949Y-2145682D01*
G01X-803949Y-2116894D01*
G01X-840312Y-2116894D01*
G01X-879706Y-2115379D01*
G01X-881979Y-2109697D01*
G01X-882736Y-2095682D01*
G01X-881979Y-2073712D01*
G01X-881221Y-2069924D01*
G01X-803949Y-2069924D01*
G01X-803949Y-2026742D01*
G01X-803191Y-1979773D01*
G01X-802433Y-1975985D01*
G01X-785009Y-1975985D01*
G01X-765312Y-1977500D01*
G01X-763608Y-1988674D01*
G01X-763039Y-2019167D01*
G01X-763797Y-2064621D01*
G01X-764554Y-2069924D01*
G01X-689555Y-2069924D01*
G01X-609252Y-2069167D01*
G01X-600161Y-2067651D01*
G01X-591827Y-2065379D01*
G01X-583494Y-2061591D01*
G01X-576676Y-2056288D01*
G01X-572130Y-2050985D01*
G01X-569100Y-2046439D01*
G01X-567585Y-2041136D01*
G01X-566827Y-2035833D01*
G01X-566070Y-2022197D01*
G01X-566827Y-2005530D01*
G01X-568343Y-1997955D01*
G01X-569858Y-1991894D01*
G01X-572130Y-1985076D01*
G01X-573646Y-1979015D01*
G01X-568532Y-1976742D01*
G01X-553191Y-1975985D01*
G01X-537661Y-1976742D01*
G01X-531979Y-1979015D01*
G01X-529706Y-1985076D01*
G01X-528191Y-1992651D01*
G01X-525918Y-2013106D01*
G01X-525160Y-2029773D01*
G37*
G36*
G01X-529706Y-1272197D02*
G01X-530464Y-1294167D01*
G01X-663797Y-1295682D01*
G01X-800161Y-1294924D01*
G01X-803949Y-1294167D01*
G01X-803949Y-1275227D01*
G01X-803191Y-1252500D01*
G01X-802433Y-1248712D01*
G01X-668342Y-1248712D01*
G01X-531979Y-1250227D01*
G01X-530274Y-1256477D01*
G01X-529706Y-1272197D01*
G37*
G36*
G01X-529706Y-3041894D02*
G01X-530464Y-3156288D01*
G01X-711524Y-3157803D01*
G01X-847130Y-3157235D01*
G01X-893342Y-3155530D01*
G01X-894857Y-3134318D01*
G01X-893342Y-3111591D01*
G01X-891827Y-3107803D01*
G01X-573646Y-3107803D01*
G01X-573646Y-2927500D01*
G01X-555464Y-2927500D01*
G01X-533494Y-2928258D01*
G01X-529706Y-2929015D01*
G01X-529706Y-3041894D01*
G37*
G36*
G01X-529706Y-3974470D02*
G01X-530464Y-3997197D01*
G01X-687282Y-3998712D01*
G01X-847130Y-3999470D01*
G01X-850918Y-4000227D01*
G01X-850918Y-4125985D01*
G01X-869100Y-4125985D01*
G01X-891070Y-4125227D01*
G01X-894857Y-4124470D01*
G01X-894857Y-3979015D01*
G01X-894100Y-3826742D01*
G01X-893342Y-3819924D01*
G01X-850918Y-3819924D01*
G01X-850918Y-3882803D01*
G01X-849403Y-3947955D01*
G01X-809062Y-3949659D01*
G01X-691070Y-3950227D01*
G01X-531979Y-3951742D01*
G01X-530274Y-3958182D01*
G01X-529706Y-3974470D01*
G37*
G36*
G01X-529706Y-3752500D02*
G01X-531221Y-3774470D01*
G01X-717585Y-3775985D01*
G01X-906221Y-3775227D01*
G01X-910009Y-3774470D01*
G01X-910009Y-3729015D01*
G01X-842585Y-3729015D01*
G01X-792206Y-3728447D01*
G01X-775918Y-3726742D01*
G01X-779706Y-3720682D01*
G01X-785009Y-3713106D01*
G01X-788797Y-3707803D01*
G01X-791827Y-3702500D01*
G01X-799403Y-3687348D01*
G01X-803949Y-3676742D01*
G01X-806221Y-3669924D01*
G01X-808494Y-3662349D01*
G01X-810009Y-3651743D01*
G01X-810767Y-3641894D01*
G01X-810767Y-3638106D01*
G01X-810009Y-3628258D01*
G01X-809252Y-3617651D01*
G01X-807736Y-3610833D01*
G01X-805464Y-3602500D01*
G01X-802433Y-3595682D01*
G01X-799403Y-3589621D01*
G01X-795615Y-3583561D01*
G01X-791827Y-3578258D01*
G01X-784251Y-3570682D01*
G01X-778948Y-3566136D01*
G01X-772888Y-3562348D01*
G01X-767585Y-3559318D01*
G01X-753948Y-3553258D01*
G01X-746373Y-3550985D01*
G01X-739555Y-3549470D01*
G01X-725918Y-3547955D01*
G01X-709252Y-3546439D01*
G01X-620615Y-3545682D01*
G01X-555274Y-3546250D01*
G01X-531979Y-3547955D01*
G01X-530274Y-3553636D01*
G01X-529706Y-3566136D01*
G01X-530464Y-3587348D01*
G01X-531221Y-3592651D01*
G01X-612282Y-3592651D01*
G01X-695615Y-3593409D01*
G01X-709252Y-3594924D01*
G01X-724403Y-3596439D01*
G01X-729706Y-3597197D01*
G01X-735767Y-3598712D01*
G01X-741827Y-3600985D01*
G01X-746373Y-3603257D01*
G01X-750918Y-3606288D01*
G01X-756221Y-3611591D01*
G01X-760009Y-3616894D01*
G01X-763039Y-3622955D01*
G01X-765312Y-3632803D01*
G01X-766827Y-3643409D01*
G01X-766827Y-3654015D01*
G01X-765312Y-3661591D01*
G01X-764554Y-3666894D01*
G01X-763039Y-3675227D01*
G01X-760009Y-3683561D01*
G01X-756979Y-3690379D01*
G01X-747130Y-3710076D01*
G01X-743342Y-3716136D01*
G01X-740312Y-3719924D01*
G01X-736524Y-3725227D01*
G01X-734252Y-3729015D01*
G01X-634251Y-3729015D01*
G01X-531979Y-3730530D01*
G01X-530274Y-3736780D01*
G01X-529706Y-3752500D01*
G37*
G36*
G01X-523645Y-3335833D02*
G01X-524403Y-3346439D01*
G01X-525160Y-3350985D01*
G01X-525918Y-3361591D01*
G01X-527433Y-3370682D01*
G01X-528191Y-3375985D01*
G01X-529706Y-3382045D01*
G01X-534251Y-3395682D01*
G01X-537282Y-3403258D01*
G01X-545615Y-3419924D01*
G01X-548645Y-3425227D01*
G01X-551676Y-3429015D01*
G01X-559252Y-3438106D01*
G01X-568343Y-3447197D01*
G01X-580464Y-3456288D01*
G01X-588039Y-3460833D01*
G01X-600161Y-3466894D01*
G01X-609252Y-3469924D01*
G01X-619858Y-3472954D01*
G01X-627433Y-3475227D01*
G01X-638039Y-3476742D01*
G01X-661524Y-3477500D01*
G01X-689555Y-3476742D01*
G01X-700161Y-3475227D01*
G01X-712282Y-3472197D01*
G01X-720615Y-3469924D01*
G01X-727433Y-3467651D01*
G01X-733494Y-3465379D01*
G01X-753191Y-3455530D01*
G01X-763797Y-3447954D01*
G01X-769100Y-3443409D01*
G01X-784251Y-3428258D01*
G01X-787282Y-3424470D01*
G01X-793342Y-3415379D01*
G01X-796373Y-3410076D01*
G01X-799403Y-3404015D01*
G01X-801676Y-3397955D01*
G01X-803949Y-3391136D01*
G01X-806221Y-3385833D01*
G01X-807736Y-3381288D01*
G01X-809252Y-3370682D01*
G01X-810767Y-3357045D01*
G01X-811524Y-3347954D01*
G01X-811145Y-3343409D01*
G01X-772130Y-3343409D01*
G01X-771373Y-3357045D01*
G01X-769857Y-3367651D01*
G01X-768342Y-3375227D01*
G01X-766070Y-3383561D01*
G01X-763039Y-3390379D01*
G01X-760009Y-3394924D01*
G01X-756979Y-3398712D01*
G01X-753948Y-3403258D01*
G01X-749403Y-3407803D01*
G01X-744858Y-3411591D01*
G01X-739555Y-3416136D01*
G01X-732736Y-3420682D01*
G01X-725161Y-3424470D01*
G01X-715312Y-3427500D01*
G01X-704706Y-3429773D01*
G01X-704706Y-3429773D01*
G01X-698646Y-3429773D01*
G01X-697888Y-3352500D01*
G01X-697888Y-3275985D01*
G01X-701676Y-3275985D01*
G01X-710767Y-3276742D01*
G01X-719858Y-3278258D01*
G01X-727433Y-3279773D01*
G01X-733494Y-3282046D01*
G01X-739555Y-3285076D01*
G01X-746373Y-3288864D01*
G01X-752433Y-3292652D01*
G01X-756979Y-3297197D01*
G01X-760767Y-3301742D01*
G01X-764554Y-3307045D01*
G01X-767585Y-3315379D01*
G01X-769857Y-3322197D01*
G01X-771373Y-3334318D01*
G01X-772130Y-3343409D01*
G01X-811145Y-3343409D01*
G01X-810767Y-3338864D01*
G01X-810009Y-3332045D01*
G01X-809252Y-3323712D01*
G01X-807736Y-3314621D01*
G01X-806221Y-3307045D01*
G01X-804706Y-3301742D01*
G01X-802433Y-3296439D01*
G01X-799403Y-3289621D01*
G01X-795615Y-3281288D01*
G01X-791070Y-3274470D01*
G01X-787282Y-3269167D01*
G01X-774403Y-3256288D01*
G01X-768342Y-3251742D01*
G01X-763039Y-3247955D01*
G01X-755464Y-3244167D01*
G01X-747130Y-3240379D01*
G01X-739555Y-3237348D01*
G01X-715312Y-3231288D01*
G01X-692585Y-3229773D01*
G01X-679706Y-3229015D01*
G01X-665312Y-3229773D01*
G01X-661524Y-3230530D01*
G01X-661524Y-3329773D01*
G01X-660956Y-3404394D01*
G01X-659251Y-3429773D01*
G01X-650160Y-3429773D01*
G01X-638039Y-3428258D01*
G01X-630464Y-3426742D01*
G01X-624403Y-3425227D01*
G01X-616827Y-3422955D01*
G01X-609252Y-3419167D01*
G01X-597130Y-3411591D01*
G01X-591827Y-3407046D01*
G01X-584252Y-3399470D01*
G01X-581221Y-3395682D01*
G01X-572130Y-3379773D01*
G01X-569100Y-3370682D01*
G01X-566827Y-3363106D01*
G01X-565312Y-3350985D01*
G01X-564555Y-3335833D01*
G01X-565312Y-3320682D01*
G01X-566827Y-3310076D01*
G01X-568343Y-3302500D01*
G01X-570615Y-3292652D01*
G01X-573646Y-3284318D01*
G01X-579706Y-3269167D01*
G01X-582736Y-3262349D01*
G01X-585767Y-3257045D01*
G01X-588797Y-3250985D01*
G01X-593342Y-3243409D01*
G01X-596373Y-3237348D01*
G01X-591070Y-3235644D01*
G01X-575161Y-3235076D01*
G01X-550161Y-3235833D01*
G01X-546941Y-3237538D01*
G01X-544858Y-3241136D01*
G01X-538797Y-3256288D01*
G01X-532736Y-3275985D01*
G01X-527433Y-3291894D01*
G01X-525918Y-3304015D01*
G01X-524403Y-3323712D01*
G01X-523645Y-3335833D01*
G37*
G36*
G01X-530274Y-2426174D02*
G01X-531979Y-2432803D01*
G01X-579327Y-2434507D01*
G01X-716827Y-2435076D01*
G01X-904706Y-2434318D01*
G01X-910009Y-2433561D01*
G01X-910009Y-2412348D01*
G01X-908494Y-2388864D01*
G01X-892017Y-2387159D01*
G01X-845615Y-2386591D01*
G01X-781979Y-2387349D01*
G01X-778191Y-2387349D01*
G01X-777433Y-2384318D01*
G01X-780464Y-2378258D01*
G01X-785009Y-2371439D01*
G01X-788797Y-2366136D01*
G01X-794858Y-2355530D01*
G01X-800918Y-2343409D01*
G01X-805464Y-2331288D01*
G01X-808494Y-2320682D01*
G01X-810009Y-2297955D01*
G01X-809252Y-2275227D01*
G01X-807736Y-2269167D01*
G01X-805464Y-2260833D01*
G01X-801676Y-2252500D01*
G01X-797888Y-2246439D01*
G01X-795615Y-2241894D01*
G01X-792585Y-2238106D01*
G01X-788039Y-2232803D01*
G01X-782736Y-2227500D01*
G01X-778191Y-2224470D01*
G01X-772888Y-2220682D01*
G01X-766070Y-2216894D01*
G01X-750918Y-2210833D01*
G01X-737282Y-2207803D01*
G01X-723645Y-2206288D01*
G01X-710767Y-2205530D01*
G01X-621373Y-2204773D01*
G01X-531979Y-2206288D01*
G01X-530274Y-2211591D01*
G01X-529706Y-2224470D01*
G01X-530464Y-2246439D01*
G01X-531221Y-2251742D01*
G01X-616070Y-2251742D01*
G01X-703191Y-2252500D01*
G01X-719858Y-2254015D01*
G01X-725918Y-2255530D01*
G01X-733494Y-2257045D01*
G01X-741070Y-2259318D01*
G01X-747130Y-2262349D01*
G01X-751676Y-2265379D01*
G01X-755464Y-2269167D01*
G01X-759251Y-2274470D01*
G01X-763039Y-2282045D01*
G01X-765312Y-2291894D01*
G01X-766827Y-2302500D01*
G01X-766827Y-2311591D01*
G01X-763797Y-2329773D01*
G01X-762282Y-2335833D01*
G01X-760009Y-2341894D01*
G01X-756979Y-2349470D01*
G01X-749403Y-2364621D01*
G01X-745615Y-2370682D01*
G01X-736524Y-2384318D01*
G01X-734441Y-2386970D01*
G01X-732736Y-2387349D01*
G01X-633494Y-2386591D01*
G01X-559441Y-2387159D01*
G01X-532736Y-2388864D01*
G01X-530464Y-2395492D01*
G01X-529706Y-2410833D01*
G01X-530274Y-2426174D01*
G37*
G36*
G01X-849403Y-2885076D02*
G01X-896373Y-2885076D01*
G01X-896373Y-2860833D01*
G01X-894857Y-2834318D01*
G01X-889176Y-2832614D01*
G01X-875161Y-2832045D01*
G01X-853191Y-2832803D01*
G01X-849403Y-2833560D01*
G01X-849403Y-2885076D01*
G37*
G36*
G01X-426676Y-2646439D02*
G01X-427433Y-2658561D01*
G01X-428191Y-2671439D01*
G01X-428949Y-2687348D01*
G01X-430464Y-2693409D01*
G01X-432736Y-2709318D01*
G01X-434252Y-2717651D01*
G01X-436524Y-2726742D01*
G01X-439555Y-2733560D01*
G01X-445615Y-2735833D01*
G01X-459252Y-2736591D01*
G01X-480464Y-2735833D01*
G01X-485009Y-2732803D01*
G01X-484252Y-2728257D01*
G01X-479706Y-2713106D01*
G01X-477433Y-2706288D01*
G01X-475161Y-2698712D01*
G01X-473645Y-2692651D01*
G01X-472888Y-2687348D01*
G01X-469858Y-2673712D01*
G01X-469100Y-2653258D01*
G01X-469858Y-2632803D01*
G01X-470615Y-2626742D01*
G01X-472130Y-2618409D01*
G01X-474403Y-2611591D01*
G01X-476676Y-2605530D01*
G01X-479706Y-2598712D01*
G01X-482736Y-2594167D01*
G01X-487282Y-2588864D01*
G01X-492585Y-2583560D01*
G01X-496373Y-2580530D01*
G01X-500918Y-2578257D01*
G01X-506221Y-2575985D01*
G01X-512282Y-2573712D01*
G01X-521373Y-2572197D01*
G01X-528948Y-2570682D01*
G01X-548645Y-2569924D01*
G01X-566070Y-2569924D01*
G01X-564555Y-2572954D01*
G01X-561524Y-2577500D01*
G01X-557736Y-2582803D01*
G01X-553949Y-2588864D01*
G01X-547888Y-2599470D01*
G01X-543342Y-2608560D01*
G01X-541070Y-2613864D01*
G01X-538797Y-2619924D01*
G01X-537282Y-2625985D01*
G01X-536524Y-2631288D01*
G01X-535009Y-2643409D01*
G01X-534251Y-2652500D01*
G01X-535009Y-2664621D01*
G01X-536524Y-2676742D01*
G01X-538797Y-2687348D01*
G01X-543342Y-2699470D01*
G01X-546373Y-2706288D01*
G01X-552433Y-2716894D01*
G01X-556221Y-2721439D01*
G01X-569100Y-2734318D01*
G01X-573646Y-2738106D01*
G01X-582736Y-2744167D01*
G01X-588039Y-2747197D01*
G01X-597130Y-2751742D01*
G01X-604706Y-2754773D01*
G01X-614555Y-2757803D01*
G01X-622888Y-2760076D01*
G01X-628948Y-2761591D01*
G01X-644100Y-2763106D01*
G01X-666070Y-2763864D01*
G01X-688040Y-2763106D01*
G01X-696373Y-2762349D01*
G01X-705464Y-2760833D01*
G01X-713797Y-2758561D01*
G01X-722888Y-2756288D01*
G01X-735009Y-2751742D01*
G01X-741827Y-2748712D01*
G01X-747888Y-2745682D01*
G01X-753191Y-2743409D01*
G01X-756979Y-2740379D01*
G01X-767585Y-2732803D01*
G01X-771373Y-2729773D01*
G01X-776676Y-2725227D01*
G01X-781221Y-2719167D01*
G01X-785009Y-2715379D01*
G01X-788797Y-2710833D01*
G01X-796373Y-2698712D01*
G01X-799403Y-2692651D01*
G01X-805464Y-2679015D01*
G01X-806979Y-2672955D01*
G01X-808494Y-2667652D01*
G01X-810009Y-2660076D01*
G01X-810767Y-2652500D01*
G01X-811524Y-2645682D01*
G01X-810767Y-2638864D01*
G01X-810067Y-2629773D01*
G01X-769100Y-2629773D01*
G01X-768342Y-2643409D01*
G01X-767585Y-2650227D01*
G01X-766070Y-2657803D01*
G01X-761524Y-2672955D01*
G01X-755464Y-2682045D01*
G01X-751676Y-2686591D01*
G01X-746373Y-2691894D01*
G01X-739555Y-2697954D01*
G01X-734252Y-2701742D01*
G01X-730464Y-2704015D01*
G01X-725918Y-2706288D01*
G01X-713797Y-2710833D01*
G01X-704706Y-2713106D01*
G01X-695615Y-2714621D01*
G01X-678949Y-2716136D01*
G01X-672130Y-2716894D01*
G01X-665312Y-2716136D01*
G01X-656979Y-2715379D01*
G01X-647130Y-2714621D01*
G01X-628948Y-2711591D01*
G01X-620615Y-2709318D01*
G01X-612282Y-2706288D01*
G01X-606221Y-2703257D01*
G01X-600918Y-2700227D01*
G01X-596373Y-2696439D01*
G01X-588797Y-2688864D01*
G01X-585767Y-2684318D01*
G01X-581221Y-2673712D01*
G01X-579706Y-2668409D01*
G01X-579706Y-2668409D01*
G01X-578949Y-2664621D01*
G01X-578191Y-2651742D01*
G01X-578949Y-2637349D01*
G01X-580464Y-2625227D01*
G01X-581979Y-2619167D01*
G01X-584252Y-2610833D01*
G01X-587282Y-2602500D01*
G01X-597130Y-2582803D01*
G01X-600918Y-2577500D01*
G01X-603948Y-2572954D01*
G01X-623645Y-2570682D01*
G01X-679706Y-2569924D01*
G01X-735577Y-2570492D01*
G01X-754706Y-2572197D01*
G01X-756979Y-2576742D01*
G01X-759251Y-2582045D01*
G01X-761524Y-2588106D01*
G01X-766070Y-2604773D01*
G01X-767585Y-2610833D01*
G01X-768342Y-2616136D01*
G01X-769100Y-2629773D01*
G01X-810067Y-2629773D01*
G01X-810009Y-2629015D01*
G01X-809252Y-2617651D01*
G01X-806979Y-2608560D01*
G01X-803949Y-2599470D01*
G01X-799403Y-2587348D01*
G01X-796373Y-2581288D01*
G01X-794100Y-2575985D01*
G01X-794858Y-2570682D01*
G01X-800161Y-2567651D01*
G01X-803949Y-2566894D01*
G01X-803949Y-2548712D01*
G01X-803191Y-2526742D01*
G01X-802433Y-2522955D01*
G01X-682736Y-2522955D01*
G01X-560767Y-2523712D01*
G01X-548645Y-2524470D01*
G01X-533494Y-2525227D01*
G01X-525918Y-2526742D01*
G01X-519100Y-2527500D01*
G01X-512282Y-2529015D01*
G01X-506979Y-2530530D01*
G01X-500918Y-2532045D01*
G01X-494858Y-2534318D01*
G01X-484252Y-2538864D01*
G01X-478191Y-2541894D01*
G01X-472888Y-2545682D01*
G01X-463797Y-2551742D01*
G01X-452433Y-2563106D01*
G01X-444858Y-2573712D01*
G01X-441827Y-2579015D01*
G01X-438797Y-2585076D01*
G01X-434252Y-2597197D01*
G01X-431979Y-2604015D01*
G01X-430464Y-2611591D01*
G01X-428949Y-2617651D01*
G01X-427433Y-2632803D01*
G01X-426676Y-2646439D01*
G37*
G36*
G01X-529706Y-2858560D02*
G01X-530464Y-2880530D01*
G01X-663797Y-2882045D01*
G01X-800161Y-2881288D01*
G01X-803949Y-2880530D01*
G01X-803949Y-2861591D01*
G01X-803191Y-2838864D01*
G01X-802433Y-2835076D01*
G01X-668342Y-2835076D01*
G01X-531979Y-2836591D01*
G01X-530274Y-2842841D01*
G01X-529706Y-2858560D01*
G37*
G04 Text End*

G04 Pad Start*
G54D11*
G01X6718300Y-11811000D03*
G54D12*
G01X-543174Y673100D03*
G01X-431800Y-5334000D03*
G01X10769600Y-5410200D03*
G01X10841100Y537141D03*
G54D13*
G01X9178100Y-3784600D03*
G01X8678101Y-3784600D03*
G54D14*
G01X5118100Y-4826000D03*
G01X6018098Y-4826000D03*
G01X1938401Y787400D03*
G01X2438400Y787400D03*
G01X2938399Y787400D03*
G01X5545201Y825500D03*
G01X6045200Y825500D03*
G01X6545199Y825500D03*
G01X8796401Y762000D03*
G01X9296400Y762000D03*
G01X9796399Y762000D03*
G54D13*
G01X6883400Y-3429000D03*
G01X6629400Y-3429000D03*
G01X6375400Y-3429000D03*
G01X6121400Y-3429000D03*
G01X5867400Y-3429000D03*
G01X5613400Y-3429000D03*
G01X5359400Y-3429000D03*
G01X5105400Y-3429000D03*
G01X4851400Y-3429000D03*
G01X4597400Y-3429000D03*
G01X4343400Y-3429000D03*
G01X4089400Y-3429000D03*
G01X3835400Y-3302000D03*
G01X3835400Y-3048000D03*
G01X3835400Y-2794000D03*
G01X3835400Y-2540000D03*
G01X3835400Y-2286000D03*
G01X3835400Y-2032000D03*
G01X4089400Y-1905000D03*
G01X4343400Y-1905000D03*
G01X4597400Y-1905000D03*
G01X4851400Y-1905000D03*
G01X5105400Y-1905000D03*
G01X5359400Y-1905000D03*
G01X5613400Y-1905000D03*
G01X5867400Y-1905000D03*
G01X6121400Y-1905000D03*
G01X6375400Y-1905000D03*
G01X6629400Y-1905000D03*
G01X6883400Y-1905000D03*
G01X6883400Y-2413000D03*
G01X6883400Y-2159000D03*
G01X4963160Y-2194560D03*
G01X5217160Y-2194560D03*
G01X6883400Y-2667000D03*
G54D15*
G01X2946400Y-5727700D03*
G01X3200399Y-5727700D03*
G01X3454399Y-5727700D03*
G54D17*
G01X10808462Y-3729863D03*
G54D18*
G01X11158474Y-4194937D03*
G01X10558526Y-4194937D03*
G04 Pad End*

G04 Via Start*
G54D19*
G01X6739001Y812800D03*
G04 Via End*

G04 Track Start*
G54D20*
G01X6739001Y812800D02*
G01X6586601Y965200D01*
G01X5684901Y965200D01*
G01X5545201Y825500D01*
G01X5545201Y825500D02*
G01X5062601Y342900D01*
G01X5062601Y-1460500D01*
G01X5469001Y-1866900D01*
G01X5469001Y-1943100D01*
G01X5392801Y-2019300D01*
G01X4457700Y-2019300D02*
G01X4343400Y-1905000D01*
G01X5062601Y342900D02*
G01X2382901Y342900D01*
G01X1938401Y787400D01*
G01X4554601Y-2019300D02*
G01X3970401Y-2603500D01*
G01X3970401Y-4813300D01*
G01X4097401Y-4940300D01*
G01X4097401Y-5262498D01*
G01X3632199Y-5727700D01*
G01X3454399Y-5727700D01*
G01X9296400Y762000D02*
G01X6756400Y-1778000D01*
G01X5994400Y-1778000D01*
G01X5867400Y-1905000D01*
G01X6045200Y825500D02*
G01X5308600Y88900D01*
G01X5308600Y-1600200D01*
G01X5613400Y-1905000D01*
G01X5392801Y-2019300D02*
G01X4554601Y-2019300D01*
G01X4457700Y-2019300D01*
G04 Track End*

M02*

