G04 Layer: BottomLayer*
G04 EasyEDA Pro v2.2.46.11, 2026-03-30 20:26:01*
G04 Gerber Generator version 0.3*
G04 Scale: 100 percent, Rotated: No, Reflected: No*
G04 Dimensions in millimeters*
G04 Leading zeros omitted, absolute positions, 4 integers and 5 decimals*
G04 Generated by one-click*
%FSLAX45Y45*%
%MOMM*%
%ADD10C,1.524*%
%ADD11C,7.0*%
%ADD12C,1.5*%
%ADD13C,2.0*%
%ADD14C,1.501*%
%ADD15O,3.69999X1.5*%
%ADD16O,1.5X3.79999*%
%ADD17C,0.61*%
%ADD18C,0.2536*%
%ADD19C,0.254*%
G75*


G04 Pad Start*
G54D10*
G01X6718300Y-11811000D03*
G54D11*
G01X-543174Y673100D03*
G01X-431800Y-5334000D03*
G01X10769600Y-5410200D03*
G01X10841100Y537141D03*
G54D12*
G01X9178100Y-3784600D03*
G01X8678101Y-3784600D03*
G54D13*
G01X5118100Y-4826000D03*
G01X6018098Y-4826000D03*
G01X1938401Y787400D03*
G01X2438400Y787400D03*
G01X2938399Y787400D03*
G01X5545201Y825500D03*
G01X6045200Y825500D03*
G01X6545199Y825500D03*
G01X8796401Y762000D03*
G01X9296400Y762000D03*
G01X9796399Y762000D03*
G54D12*
G01X6883400Y-3429000D03*
G01X6629400Y-3429000D03*
G01X6375400Y-3429000D03*
G01X6121400Y-3429000D03*
G01X5867400Y-3429000D03*
G01X5613400Y-3429000D03*
G01X5359400Y-3429000D03*
G01X5105400Y-3429000D03*
G01X4851400Y-3429000D03*
G01X4597400Y-3429000D03*
G01X4343400Y-3429000D03*
G01X4089400Y-3429000D03*
G01X3835400Y-3302000D03*
G01X3835400Y-3048000D03*
G01X3835400Y-2794000D03*
G01X3835400Y-2540000D03*
G01X3835400Y-2286000D03*
G01X3835400Y-2032000D03*
G01X4089400Y-1905000D03*
G01X4343400Y-1905000D03*
G01X4597400Y-1905000D03*
G01X4851400Y-1905000D03*
G01X5105400Y-1905000D03*
G01X5359400Y-1905000D03*
G01X5613400Y-1905000D03*
G01X5867400Y-1905000D03*
G01X6121400Y-1905000D03*
G01X6375400Y-1905000D03*
G01X6629400Y-1905000D03*
G01X6883400Y-1905000D03*
G01X6883400Y-2413000D03*
G01X6883400Y-2159000D03*
G01X4963160Y-2194560D03*
G01X5217160Y-2194560D03*
G01X6883400Y-2667000D03*
G54D14*
G01X2946400Y-5727700D03*
G01X3200399Y-5727700D03*
G01X3454399Y-5727700D03*
G54D15*
G01X10808462Y-3729863D03*
G54D16*
G01X11158474Y-4194937D03*
G01X10558526Y-4194937D03*
G04 Pad End*

G04 Via Start*
G54D17*
G01X6739001Y812800D03*
G04 Via End*

G04 Track Start*
G54D19*
G01X5118100Y-4826000D02*
G01X4102099Y-4826000D01*
G01X3200399Y-5727700D01*
G01X6018098Y-4826000D02*
G01X6018098Y-4087698D01*
G01X5359400Y-3429000D01*
G01X9178100Y-3784600D02*
G01X10549700Y-3784600D01*
G01X10956100Y-4191000D01*
G01X11154537Y-4191000D01*
G01X11158474Y-4194937D01*
G01X9178100Y-3784600D02*
G01X9178100Y380302D01*
G01X8796401Y762000D01*
G01X6789801Y762000D01*
G01X6739001Y812800D01*
G01X2438400Y787400D02*
G01X2667000Y787400D01*
G01X5359400Y-1905000D01*
G01X8678101Y-3784600D02*
G01X9088438Y-4194937D01*
G01X10558526Y-4194937D01*
G01X8678101Y-3784600D02*
G01X6925501Y-2032000D01*
G01X6620701Y-2032000D01*
G01X6595301Y-2006600D01*
G01X6468301Y-2006600D02*
G01X6442901Y-2032000D01*
G01X5223701Y-2032000D01*
G01X5198301Y-2006600D01*
G01X5122101Y-2006600D01*
G01X5096701Y-2032000D01*
G01X4978400Y-2032000D01*
G01X4851400Y-1905000D01*
G01X6519101Y-2006600D02*
G01X6519101Y685800D01*
G01X6544501Y711200D01*
G01X6545199Y825500D02*
G01X6621399Y901700D01*
G01X9656699Y901700D01*
G01X9796399Y762000D01*
G01X6544501Y787400D02*
G01X6442901Y685800D01*
G01X3039999Y685800D01*
G01X2938399Y787400D01*
G01X5096701Y-2032000D02*
G01X5096701Y-2209800D01*
G01X2946400Y-4360100D01*
G01X2946400Y-5727700D01*
G01X6595301Y-2006600D02*
G01X6519101Y-2006600D01*
G01X6468301Y-2006600D01*
G01X6544501Y711200D02*
G01X6544501Y787400D01*
G01X6544501Y824802D01*
G04 Track End*

M02*

