# Object Export From Tinkercad Server 2015

mtllib obj.mtl

o obj_0
v -55.877 		-36.877 		0
v -55.618 		-37.172 		0
v -55.4 		-37.499 		0
v -55.226 		-37.851 		0
v -55.1 		-38.223 		0
v -55.023 		-38.608 		0
v -54.998 		-39 		0
v -55.023 		-39.392 		0
v -55.1 		-39.777 		0
v -55.226 		-40.149 		0
v -55.4 		-40.501 		0
v -55.618 		-40.828 		0
v -57.223 		-36.1 		0
v -56.851 		-36.226 		0
v -56.499 		-36.4 		0
v -56.172 		-36.618 		0
v -58.392 		-41.977 		5
v -58 		-42.003 		5
v -58.777 		-41.9 		5
v -59.149 		-41.774 		5
v -59.501 		-41.6 		5
v -59.828 		-41.382 		5
v -60.123 		-41.123 		5
v -55.877 		-41.123 		5
v -56.172 		-41.382 		5
v -56.499 		-41.6 		5
v -56.851 		-41.774 		5
v -57.223 		-41.9 		5
v -57.608 		-41.977 		5
v -60.382 		-40.828 		5
v -60.6 		-40.501 		5
v -60.774 		-40.149 		5
v -60.9 		-39.777 		5
v -60.977 		-39.392 		5
v -61.003 		-39 		5
v -60.977 		-38.608 		5
v -60.9 		-38.223 		5
v -60.774 		-37.851 		5
v -60.6 		-37.499 		5
v -60.382 		-37.172 		5
v -60.123 		-36.877 		5
v -59.828 		-36.618 		5
v -59.501 		-36.4 		5
v -59.149 		-36.226 		5
v -58.777 		-36.1 		5
v -58.392 		-36.023 		5
v -58 		-35.998 		5
v -57.608 		-36.023 		5
v -55.877 		-36.877 		5
v -55.618 		-37.172 		5
v -55.4 		-37.499 		5
v -55.226 		-37.851 		5
v -55.1 		-38.223 		5
v -55.023 		-38.608 		5
v -54.998 		-39 		5
v -55.023 		-39.392 		5
v -55.1 		-39.777 		5
v -55.226 		-40.149 		5
v -55.4 		-40.501 		5
v -55.618 		-40.828 		5
v -57.223 		-36.1 		5
v -56.851 		-36.226 		5
v -56.499 		-36.4 		5
v -56.172 		-36.618 		5
v -59 		17.998 		0
v -59.392 		18.023 		0
v -59.777 		18.1 		0
v -60.149 		18.226 		0
v -60.501 		18.4 		0
v -60.828 		18.618 		0
v -57.499 		18.4 		0
v -57.851 		18.226 		0
v -58.223 		18.1 		0
v -58.608 		18.023 		0
v -56.1 		20.223 		0
v -56.226 		19.851 		0
v -56.4 		19.499 		0
v -56.618 		19.172 		0
v -56.877 		18.877 		0
v -57.172 		18.618 		0
v -60.828 		23.382 		0
v -60.501 		23.6 		0
v -60.149 		23.774 		0
v -59.777 		23.9 		0
v -59.392 		23.977 		0
v -59 		24.003 		0
v -58.608 		23.977 		0
v -58.223 		23.9 		0
v -57.851 		23.774 		0
v -57.499 		23.6 		0
v -57.172 		23.382 		0
v -56.877 		23.123 		0
v -56.618 		22.828 		0
v -56.4 		22.501 		0
v -56.226 		22.149 		0
v -56.1 		21.777 		0
v -56.023 		21.392 		0
v -55.998 		21 		0
v -56.023 		20.608 		0
v -59.392 		18.023 		5
v -59 		17.998 		5
v -59.777 		18.1 		5
v -60.149 		18.226 		5
v -60.501 		18.4 		5
v -60.828 		18.618 		5
v -57.499 		18.4 		5
v -57.851 		18.226 		5
v -58.223 		18.1 		5
v -58.608 		18.023 		5
v -56.1 		20.223 		5
v -56.226 		19.851 		5
v -56.4 		19.499 		5
v -56.618 		19.172 		5
v -56.877 		18.877 		5
v -57.172 		18.618 		5
v -60.828 		23.382 		5
v -60.501 		23.6 		5
v -60.149 		23.774 		5
v -59.777 		23.9 		5
v -59.392 		23.977 		5
v -59 		24.003 		5
v -58.608 		23.977 		5
v -58.223 		23.9 		5
v -57.851 		23.774 		5
v -57.499 		23.6 		5
v -57.172 		23.382 		5
v -56.877 		23.123 		5
v -56.618 		22.828 		5
v -56.4 		22.501 		5
v -56.226 		22.149 		5
v -56.1 		21.777 		5
v -56.023 		21.392 		5
v -55.998 		21 		5
v -56.023 		20.608 		5
v -61.6 		19.499 		0
v -61.774 		19.851 		0
v -61.9 		20.223 		0
v -61.123 		18.877 		0
v -61.382 		19.172 		0
v -61.977 		20.608 		0
v -62.003 		21 		0
v -61.977 		21.392 		0
v -61.9 		21.777 		0
v -61.774 		22.149 		0
v -61.6 		22.501 		0
v -61.382 		22.828 		0
v -61.123 		23.123 		0
v -61.6 		19.499 		5
v -61.774 		19.851 		5
v -61.9 		20.223 		5
v -61.123 		18.877 		5
v -61.382 		19.172 		5
v -61.977 		20.608 		5
v -62.003 		21 		5
v -61.977 		21.392 		5
v -61.9 		21.777 		5
v -61.774 		22.149 		5
v -61.6 		22.501 		5
v -61.382 		22.828 		5
v -61.123 		23.123 		5
v -58.777 		-36.1 		0
v -59.149 		-36.226 		0
v -58.392 		-36.023 		0
v -58 		-35.998 		0
v -57.608 		-36.023 		0
v 50.998 		32 		0
v 50.998 		-40 		0
v -54.998 		-41.8039 		0
v -58 		-42.003 		0
v -62.003 		17.998 		0
v 56.774 		-41.149 		5
v 56.6 		-41.501 		5
v 56.382 		-41.828 		5
v 56.123 		-42.123 		5
v 55.828 		-42.382 		5
v 55.501 		-42.6 		5
v 55.149 		-42.774 		5
v 54.777 		-42.9 		5
v 54.392 		-42.977 		5
v -61.003 		-39 		0
v 54 		-43.003 		5
v 67 		-52 		0
v 67 		32 		0
v 53.223 		-42.9 		0
v 52.851 		-42.774 		0
v 52.499 		-42.6 		0
v 52.172 		-42.382 		0
v 51.877 		-42.123 		0
v 51.618 		-41.828 		0
v 51.4 		-41.501 		0
v 51.226 		-41.149 		0
v 54 		-43.003 		0
v 53.608 		-42.977 		0
v 56.774 		-41.149 		0
v 56.6 		-41.501 		0
v 56.382 		-41.828 		0
v 56.123 		-42.123 		0
v 55.828 		-42.382 		0
v 55.501 		-42.6 		0
v 55.149 		-42.774 		0
v 54.777 		-42.9 		0
v 54.392 		-42.977 		0
v 51.1 		-40.777 		0
v 51.023 		-40.392 		0
v 51.023 		-39.608 		0
v 51.1 		-39.223 		0
v 51.226 		-38.851 		0
v 51.4 		-38.499 		0
v 51.618 		-38.172 		0
v 51.877 		-37.877 		0
v 52.172 		-37.618 		0
v 52.499 		-37.4 		0
v 52.851 		-37.226 		0
v 53.223 		-37.1 		0
v 56.9 		-39.223 		0
v 56.977 		-39.608 		0
v 57.003 		-40 		0
v 56.977 		-40.392 		0
v 56.9 		-40.777 		0
v 53.608 		-37.023 		0
v 54 		-36.998 		0
v 54.392 		-37.023 		0
v 54.777 		-37.1 		0
v 55.149 		-37.226 		0
v 40.387 		32 		27.003
v 55.501 		-37.4 		0
v 55.828 		-37.618 		0
v 49.39 		32 		18
v 67 		32 		50
v 56.123 		-37.877 		0
v 31.385 		32 		18
v 15.003 		32 		18
v 56.382 		-38.172 		0
v 56.6 		-38.499 		0
v -3.003 		32 		50
v -3.003 		32 		18
v -19.998 		32 		8.998
v -19.998 		32 		18
v 56.774 		-38.851 		0
v -29 		32 		8.998
v 6 		32 		8.998
v 40.387 		32 		8.998
v -38.003 		32 		18
v 67 		28 		55
v -37.696 		28 		15.67
v -37.696 		32 		15.67
v -37.317 		28 		14.555
v -37.317 		32 		14.555
v -36.796 		28 		13.499
v -36.796 		32 		13.499
v -36.142 		28 		12.52
v -36.142 		32 		12.52
v 53.223 		-42.9 		5
v -35.366 		28 		11.634
v -35.366 		32 		11.634
v 52.851 		-42.774 		5
v -34.48 		28 		10.858
v -34.48 		32 		10.858
v 52.499 		-42.6 		5
v -33.501 		28 		10.204
v -33.501 		32 		10.204
v 52.172 		-42.382 		5
v -27.825 		28 		9.075
v 51.877 		-42.123 		5
v -27.825 		32 		9.075
v -29 		28 		8.998
v -26.67 		28 		9.304
v -26.67 		32 		9.304
v -25.555 		28 		9.683
v -25.555 		32 		9.683
v -24.499 		28 		10.204
v -24.499 		32 		10.204
v -23.52 		28 		10.858
v -23.52 		32 		10.858
v -22.634 		28 		11.634
v -22.634 		32 		11.634
v -21.858 		28 		12.52
v -21.858 		32 		12.52
v -21.204 		28 		13.499
v -21.204 		32 		13.499
v -20.683 		28 		14.555
v -20.683 		32 		14.555
v -55.998 		28 		5
v -20.304 		28 		15.67
v -20.304 		32 		15.67
v -54.998 		17.998 		5
v -32.445 		28 		9.683
v -32.445 		32 		9.683
v -61.003 		-35.998 		5
v -31.33 		28 		9.304
v -31.33 		32 		9.304
v -30.175 		28 		9.075
v -30.175 		32 		9.075
v 50.998 		-42.003 		5
v 50.998 		-40 		5
v -33.501 		28 		25.796
v -33.501 		32 		25.796
v 51.1 		-40.777 		5
v -69 		-48 		5
v 51.023 		-40.392 		5
v -69 		28 		5
v 51.023 		-39.608 		5
v 51.1 		-39.223 		5
v 51.226 		-38.851 		5
v 51.4 		-38.499 		5
v 51.618 		-38.172 		5
v 51.877 		-37.877 		5
v 52.172 		-37.618 		5
v 52.499 		-37.4 		5
v 52.851 		-37.226 		5
v 53.223 		-37.1 		5
v 56.9 		-39.223 		5
v 56.977 		-39.608 		5
v 57.003 		-40 		5
v 56.977 		-40.392 		5
v 56.9 		-40.777 		5
v 53.608 		-37.023 		5
v 54 		-36.998 		5
v 54.392 		-37.023 		5
v 54.777 		-37.1 		5
v 55.149 		-37.226 		5
v 55.501 		-37.4 		5
v 55.828 		-37.618 		5
v 56.123 		-37.877 		5
v -34.48 		28 		25.142
v -34.48 		32 		25.142
v 56.382 		-38.172 		5
v -35.366 		28 		24.366
v 56.6 		-38.499 		5
v -35.366 		32 		24.366
v -36.142 		28 		23.48
v -36.142 		32 		23.48
v 56.774 		-38.851 		5
v -36.796 		28 		22.501
v -36.796 		32 		22.501
v -37.317 		28 		21.445
v -37.317 		32 		21.445
v 53.172 		17.618 		5
v -37.696 		28 		20.33
v -37.696 		32 		20.33
v 52.877 		17.877 		5
v -37.925 		28 		19.175
v -37.925 		32 		19.175
v 52.618 		18.172 		5
v -38.003 		28 		18
v -37.925 		28 		16.825
v -37.925 		32 		16.825
v 52.4 		18.499 		5
v 52.226 		18.851 		5
v 52.1 		19.223 		5
v -25.555 		28 		26.317
v -25.555 		32 		26.317
v 52.023 		19.608 		5
v -26.67 		28 		26.696
v -26.67 		32 		26.696
v 51.998 		20 		5
v -27.825 		28 		26.925
v -27.825 		32 		26.925
v 52.023 		20.392 		5
v -29 		28 		27.003
v -29 		32 		27.003
v -30.175 		28 		26.925
v -30.175 		32 		26.925
v 55 		16.998 		5
v -31.33 		28 		26.696
v 54.608 		17.023 		5
v -31.33 		32 		26.696
v -32.445 		28 		26.317
v -32.445 		32 		26.317
v 54.223 		17.1 		5
v 53.851 		17.226 		5
v 53.499 		17.4 		5
v -20.075 		28 		16.825
v -20.075 		32 		16.825
v -19.998 		28 		18
v -20.075 		28 		19.175
v -20.075 		32 		19.175
v 56.828 		17.618 		5
v -20.304 		28 		20.33
v -20.304 		32 		20.33
v 53.172 		17.618 		0
v 56.501 		17.4 		5
v -20.683 		28 		21.445
v -20.683 		32 		21.445
v 52.877 		17.877 		0
v 56.149 		17.226 		5
v -21.204 		28 		22.501
v 52.618 		18.172 		0
v -21.204 		32 		22.501
v 55.777 		17.1 		5
v -21.858 		28 		23.48
v -21.858 		32 		23.48
v 52.4 		18.499 		0
v 55.392 		17.023 		5
v -22.634 		28 		24.366
v 52.226 		18.851 		0
v -22.634 		32 		24.366
v 52.1 		19.223 		0
v -23.52 		28 		25.142
v -23.52 		32 		25.142
v 52.1 		20.777 		5
v 52.023 		19.608 		0
v -24.499 		28 		25.796
v -24.499 		32 		25.796
v 51.998 		20 		0
v 52.226 		21.149 		5
v 51.998 		16.998 		0
v 52.023 		20.392 		0
v 52.4 		21.501 		5
v 52.618 		21.828 		5
v -0.366 		28 		24.366
v -0.366 		32 		24.366
v 54.608 		17.023 		0
v 55 		16.998 		0
v 52.877 		22.123 		5
v 54.223 		17.1 		0
v -1.142 		28 		23.48
v 53.172 		22.382 		5
v -1.142 		32 		23.48
v 53.851 		17.226 		0
v -1.796 		28 		22.501
v -1.796 		32 		22.501
v 53.499 		17.4 		0
v -2.317 		28 		21.445
v -2.317 		32 		21.445
v 53.499 		22.6 		5
v -2.696 		28 		20.33
v -2.696 		32 		20.33
v 53.851 		22.774 		5
v 56.828 		17.618 		0
v -2.925 		28 		19.175
v -2.925 		32 		19.175
v 54.223 		22.9 		5
v 56.501 		17.4 		0
v -3.003 		28 		18
v 56.149 		17.226 		0
v 54.608 		22.977 		5
v -2.925 		28 		16.825
v -2.925 		32 		16.825
v 55.777 		17.1 		0
v 55 		23.003 		5
v -2.696 		28 		15.67
v 55.392 		17.023 		0
v -2.696 		32 		15.67
v 55.392 		22.977 		5
v 55.777 		22.9 		5
v -2.317 		28 		14.555
v -2.317 		32 		14.555
v 52.1 		20.777 		0
v 56.149 		22.774 		5
v -1.796 		28 		13.499
v 52.226 		21.149 		0
v -1.796 		32 		13.499
v 56.501 		22.6 		5
v 52.4 		21.501 		0
v -1.142 		28 		12.52
v -1.142 		32 		12.52
v 56.828 		22.382 		5
v 52.618 		21.828 		0
v -0.366 		28 		11.634
v -0.366 		32 		11.634
v 52.877 		22.123 		0
v 53.172 		22.382 		0
v 7.175 		28 		9.075
v 7.175 		32 		9.075
v 6 		28 		8.998
v 53.499 		22.6 		0
v 53.851 		22.774 		0
v 0.52 		28 		10.858
v 0.52 		32 		10.858
v 54.223 		22.9 		0
v 1.499 		28 		10.204
v 1.499 		32 		10.204
v 54.608 		22.977 		0
v 2.555 		28 		9.683
v 2.555 		32 		9.683
v 55 		23.003 		0
v 3.67 		28 		9.304
v 3.67 		32 		9.304
v 55.392 		22.977 		0
v 4.825 		28 		9.075
v 4.825 		32 		9.075
v 55.777 		22.9 		0
v 57.123 		17.877 		5
v 56.149 		22.774 		0
v 56.501 		22.6 		0
v 8.33 		28 		9.304
v 8.33 		32 		9.304
v 56.828 		22.382 		0
v 9.445 		28 		9.683
v 9.445 		32 		9.683
v 10.501 		28 		10.204
v 10.501 		32 		10.204
v 11.48 		28 		10.858
v 11.48 		32 		10.858
v 12.366 		28 		11.634
v 12.366 		32 		11.634
v 13.142 		28 		12.52
v 13.142 		32 		12.52
v 57.977 		20.392 		5
v 13.796 		28 		13.499
v 13.796 		32 		13.499
v 58.003 		20 		5
v 14.317 		28 		14.555
v 14.317 		32 		14.555
v 57.977 		19.608 		5
v 14.696 		28 		15.67
v 14.696 		32 		15.67
v 57.9 		19.223 		5
v 57.123 		17.877 		0
v 57.774 		18.851 		5
v 57.6 		18.499 		5
v 7.175 		28 		26.925
v 57.382 		18.172 		5
v 7.175 		32 		26.925
v 6 		28 		27.003
v 6 		32 		27.003
v 58.003 		16.998 		5
v 4.825 		28 		26.925
v 4.825 		32 		26.925
v 57.123 		22.123 		5
v 3.67 		28 		26.696
v 3.67 		32 		26.696
v 2.555 		28 		26.317
v 2.555 		32 		26.317
v 57.977 		20.392 		0
v 57.382 		21.828 		5
v 1.499 		28 		25.796
v 1.499 		32 		25.796
v 58.003 		20 		0
v 57.6 		21.501 		5
v 0.52 		28 		25.142
v 0.52 		32 		25.142
v 57.977 		19.608 		0
v 57.774 		21.149 		5
v 57.9 		19.223 		0
v 57.9 		20.777 		5
v 57.774 		18.851 		0
v 14.925 		28 		16.825
v 57.6 		18.499 		0
v 14.925 		32 		16.825
v 57.382 		18.172 		0
v 15.003 		28 		18
v 14.925 		28 		19.175
v 14.925 		32 		19.175
v 57.123 		22.123 		0
v 63 		28 		5
v 14.696 		28 		20.33
v 14.696 		32 		20.33
v 57.382 		21.828 		0
v 14.317 		28 		21.445
v 14.317 		32 		21.445
v 57.6 		21.501 		0
v 57.774 		21.149 		0
v 13.796 		28 		22.501
v 13.796 		32 		22.501
v 57.9 		20.777 		0
v 13.142 		28 		23.48
v 13.142 		32 		23.48
v 63 		-48 		5
v 12.366 		28 		24.366
v 12.366 		32 		24.366
v 11.48 		28 		25.142
v 67 		16.998 		0
v 11.48 		32 		25.142
v 10.501 		28 		25.796
v 10.501 		32 		25.796
v 9.445 		28 		26.317
v 9.445 		32 		26.317
v 8.33 		28 		26.696
v 8.33 		32 		26.696
v -58.392 		-41.977 		0
v -58.777 		-41.9 		0
v 51.618 		-41.828 		5
v 51.4 		-41.501 		5
v 51.226 		-41.149 		5
v 53.608 		-42.977 		5
v 67 		-48 		50
v 67 		-48 		55
v 67 		-52 		50
v 67 		-20.591 		18.003
v 67 		-20.591 		6.998
v 67 		-34.596 		6.998
v 67 		-34.596 		18.003
v 67 		28 		50
v -59.149 		-41.774 		0
v -59.501 		-41.6 		0
v -73 		-52 		50
v -73 		-48 		55
v -73 		-48 		50
v -73 		28 		50
v -73 		28 		55
v -73 		32 		50
v -59.828 		-41.382 		0
v -60.123 		-41.123 		0
v -73 		32 		0
v -73 		-52 		0
v -55.877 		-41.123 		0
v -56.172 		-41.382 		0
v -69 		-48 		50
v -69 		28 		50
v -56.499 		-41.6 		0
v -56.851 		-41.774 		0
v -57.223 		-41.9 		0
v -57.608 		-41.977 		0
v -60.382 		-40.828 		0
v -60.6 		-40.501 		0
v -60.774 		-40.149 		0
v -60.9 		-39.777 		0
v -60.977 		-39.392 		0
v -60.977 		-38.608 		0
v -60.9 		-38.223 		0
v -60.774 		-37.851 		0
v -60.6 		-37.499 		0
v -60.382 		-37.172 		0
v -60.123 		-36.877 		0
v 63 		-48 		50
v 63 		-20.591 		6.998
v 63 		-20.591 		18.003
v 63 		-34.596 		18.003
v 63 		-34.596 		6.998
v 63 		28 		50
v -3.003 		28 		50
v 34.907 		28 		25.142
v 35.886 		28 		25.796
v 34.021 		28 		24.366
v 33.245 		28 		23.48
v 49.083 		28 		20.33
v 48.704 		28 		21.445
v 48.183 		28 		22.501
v 47.529 		28 		23.48
v 46.753 		28 		24.366
v 45.867 		28 		25.142
v 44.888 		28 		25.796
v 43.832 		28 		26.317
v 42.717 		28 		26.696
v 41.562 		28 		26.925
v 49.313 		28 		16.825
v 49.39 		28 		18
v -59.828 		-36.618 		0
v 49.313 		28 		19.175
v -59.501 		-36.4 		0
v 40.387 		28 		27.003
v 31.385 		28 		18
v -3.003 		28 		8.998
v 40.387 		28 		8.998
v 8.6957 		28 		8.998
v 31.691 		32 		15.67
v 32.07 		32 		14.555
v 32.591 		32 		13.499
v 33.245 		32 		12.52
v 34.021 		32 		11.634
v 34.907 		32 		10.858
v 35.886 		32 		10.204
v 36.942 		32 		9.683
v 38.057 		32 		9.304
v 39.212 		32 		9.075
v 41.562 		32 		9.075
v 42.717 		32 		9.304
v 43.832 		32 		9.683
v 44.888 		32 		10.204
v 45.867 		32 		10.858
v 46.753 		32 		11.634
v 47.529 		32 		12.52
v 48.183 		32 		13.499
v 48.704 		32 		14.555
v 49.083 		32 		15.67
v 32.591 		32 		22.501
v 32.07 		32 		21.445
v 31.691 		32 		20.33
v 31.462 		32 		19.175
v 31.462 		32 		16.825
v 39.212 		32 		26.925
v 38.057 		32 		26.696
v 36.942 		32 		26.317
v 35.886 		32 		25.796
v 34.907 		32 		25.142
v 34.021 		32 		24.366
v 33.245 		32 		23.48
v 49.083 		32 		20.33
v 48.704 		32 		21.445
v 48.183 		32 		22.501
v 47.529 		32 		23.48
v 46.753 		32 		24.366
v 45.867 		32 		25.142
v 44.888 		32 		25.796
v 43.832 		32 		26.317
v 42.717 		32 		26.696
v 41.562 		32 		26.925
v 49.313 		32 		16.825
v 49.313 		32 		19.175
v 31.691 		28 		15.67
v 32.07 		28 		14.555
v 32.591 		28 		13.499
v 33.245 		28 		12.52
v 34.021 		28 		11.634
v 34.907 		28 		10.858
v 35.886 		28 		10.204
v 36.942 		28 		9.683
v 38.057 		28 		9.304
v 39.212 		28 		9.075
v 41.562 		28 		9.075
v 42.717 		28 		9.304
v 43.832 		28 		9.683
v 44.888 		28 		10.204
v 45.867 		28 		10.858
v 46.753 		28 		11.634
v 47.529 		28 		12.52
v 48.183 		28 		13.499
v 48.704 		28 		14.555
v 49.083 		28 		15.67
v 32.591 		28 		22.501
v 32.07 		28 		21.445
v 31.691 		28 		20.33
v 31.462 		28 		19.175
v 31.462 		28 		16.825
v 39.212 		28 		26.925
v 38.057 		28 		26.696
v 36.942 		28 		26.317
# 719 vertices

g group_0_40919

usemtl color_40919
s 0

f 5 	6 	54
f 54 	6 	7
f 9 	10 	58
f 58 	10 	11
f 17 	573 	19
f 19 	573 	20
f 26 	603 	27
f 27 	603 	28
f 610 	34 	33
f 34 	610 	35
f 613 	38 	37
f 39 	38 	613
f 16 	1 	64
f 49 	1 	2
f 49 	2 	50
f 3 	51 	2
f 50 	2 	51
f 51 	3 	4
f 51 	4 	52
f 5 	53 	4
f 52 	4 	53
f 53 	5 	54
f 7 	55 	54
f 55 	7 	8
f 55 	8 	56
f 9 	57 	8
f 56 	8 	57
f 57 	9 	58
f 11 	59 	58
f 59 	11 	12
f 59 	12 	60
f 24 	60 	12
f 48 	13 	61
f 14 	62 	61
f 14 	61 	13
f 62 	14 	63
f 15 	63 	14
f 16 	64 	63
f 16 	63 	15
f 49 	64 	1
f 65 	66 	101
f 68 	69 	104
f 104 	69 	70
f 72 	73 	108
f 108 	73 	74
f 74 	65 	101
f 78 	79 	114
f 114 	79 	80
f 89 	124 	88
f 90 	124 	89
f 92 	127 	91
f 127 	92 	93
f 95 	96 	131
f 131 	96 	97
f 101 	66 	100
f 100 	66 	67
f 100 	67 	102
f 68 	103 	67
f 102 	67 	103
f 103 	68 	104
f 70 	105 	104
f 138 	105 	70
f 115 	80 	106
f 72 	107 	71
f 106 	71 	107
f 107 	72 	108
f 108 	74 	109
f 109 	74 	101
f 134 	75 	110
f 76 	111 	75
f 110 	75 	111
f 111 	76 	77
f 111 	77 	112
f 78 	113 	77
f 112 	77 	113
f 113 	78 	114
f 114 	80 	115
f 71 	106 	80
f 160 	81 	116
f 82 	117 	116
f 82 	116 	81
f 117 	82 	118
f 83 	118 	82
f 84 	119 	118
f 84 	118 	83
f 119 	84 	120
f 85 	120 	84
f 120 	85 	86
f 120 	86 	121
f 121 	86 	122
f 87 	122 	86
f 122 	87 	123
f 88 	123 	87
f 124 	123 	88
f 90 	125 	124
f 125 	90 	126
f 91 	126 	90
f 127 	126 	91
f 93 	128 	127
f 128 	93 	94
f 128 	94 	129
f 95 	130 	94
f 129 	94 	130
f 130 	95 	131
f 97 	132 	131
f 132 	97 	98
f 132 	98 	133
f 133 	98 	99
f 133 	99 	134
f 75 	134 	99
f 144 	157 	143
f 145 	157 	144
f 147 	160 	146
f 81 	160 	147
f 136 	149 	148
f 136 	148 	135
f 149 	136 	150
f 137 	150 	136
f 105 	138 	151
f 151 	138 	152
f 139 	152 	138
f 152 	139 	148
f 135 	148 	139
f 150 	137 	153
f 140 	153 	137
f 153 	140 	141
f 153 	141 	154
f 154 	141 	155
f 142 	155 	141
f 155 	142 	156
f 143 	156 	142
f 157 	156 	143
f 145 	158 	157
f 158 	145 	159
f 146 	159 	145
f 160 	159 	146
f 162 	170 	161
f 161 	170 	163
f 76 	75 	402
f 77 	76 	402
f 78 	77 	402
f 79 	78 	402
f 16 	79 	402
f 402 	398 	1
f 398 	396 	2
f 164 	163 	65
f 165 	164 	74
f 13 	165 	73
f 72 	71 	14
f 67 	163 	68
f 68 	163 	69
f 80 	79 	16
f 16 	15 	80
f 71 	80 	15
f 455 	452 	98
f 449 	408 	98
f 408 	405 	98
f 99 	98 	405
f 75 	99 	402
f 596 	81 	147
f 84 	83 	596
f 85 	84 	596
f 86 	596 	87
f 87 	596 	88
f 596 	166 	88
f 89 	88 	166
f 91 	166 	92
f 93 	92 	166
f 95 	94 	166
f 94 	93 	166
f 91 	90 	166
f 90 	89 	166
f 85 	596 	86
f 459 	455 	98
f 166 	459 	98
f 98 	97 	166
f 97 	96 	166
f 96 	95 	166
f 74 	73 	165
f 14 	13 	72
f 15 	14 	71
f 405 	402 	99
f 73 	72 	13
f 65 	74 	164
f 66 	65 	163
f 67 	66 	163
f 5 	4 	407
f 2 	1 	398
f 1 	16 	402
f 169 	605 	597
f 135 	139 	170
f 136 	135 	170
f 137 	136 	170
f 170 	596 	137
f 138 	70 	170
f 70 	69 	170
f 138 	170 	139
f 170 	69 	163
f 143 	596 	144
f 144 	596 	145
f 146 	145 	596
f 172 	196 	173
f 147 	146 	596
f 173 	196 	174
f 596 	82 	81
f 176 	200 	177
f 596 	83 	82
f 177 	200 	178
f 642 	170 	162
f 642 	640 	170
f 170 	616 	615
f 180 	597 	611
f 170 	613 	597
f 596 	143 	142
f 140 	137 	596
f 597 	596 	170
f 142 	141 	596
f 240 	265 	596
f 593 	343 	596
f 187 	188 	264
f 189 	264 	188
f 192 	193 	181
f 171 	194 	195
f 171 	195 	172
f 172 	195 	196
f 196 	197 	174
f 198 	175 	197
f 174 	197 	175
f 175 	198 	199
f 175 	199 	176
f 176 	199 	200
f 200 	201 	178
f 202 	179 	201
f 178 	201 	179
f 192 	181 	202
f 179 	202 	181
f 204 	300 	203
f 295 	300 	204
f 295 	204 	167
f 205 	295 	167
f 210 	307 	209
f 211 	307 	210
f 321 	223 	224
f 235 	229 	673
f 235 	673 	674
f 235 	674 	675
f 676 	235 	675
f 327 	324 	233
f 648 	649 	505
f 670 	671 	545
f 669 	670 	549
f 668 	669 	552
f 552 	556 	668
f 235 	679 	567
f 567 	569 	235
f 236 	439 	374
f 428 	432 	377
f 422 	425 	384
f 384 	389 	422
f 216 	313 	215
f 312 	215 	313
f 313 	216 	217
f 314 	217 	218
f 194 	171 	219
f 318 	317 	220
f 318 	220 	221
f 318 	221 	222
f 321 	224 	226
f 227 	323 	226
f 323 	227 	324
f 230 	324 	227
f 166 	596 	237
f 237 	482 	166
f 482 	241 	166
f 241 	465 	166
f 655 	656 	493
f 497 	652 	495
f 656 	657 	166
f 659 	660 	166
f 658 	659 	166
f 660 	661 	166
f 661 	662 	166
f 662 	663 	166
f 663 	664 	183
f 666 	667 	183
f 665 	666 	183
f 230 	233 	324
f 252 	596 	250
f 243 	596 	343
f 327 	233 	234
f 229 	235 	244
f 592 	244 	235
f 592 	235 	593
f 329 	234 	239
f 246 	245 	247
f 246 	247 	248
f 312 	239 	215
f 249 	250 	248
f 249 	248 	247
f 251 	252 	250
f 251 	250 	249
f 577 	184 	253
f 254 	255 	252
f 254 	252 	251
f 185 	256 	184
f 253 	184 	256
f 257 	258 	255
f 257 	255 	254
f 256 	185 	186
f 256 	186 	259
f 260 	261 	258
f 260 	258 	257
f 187 	262 	186
f 259 	186 	262
f 262 	187 	264
f 263 	265 	240
f 263 	240 	266
f 267 	268 	265
f 267 	265 	263
f 269 	270 	268
f 269 	268 	267
f 286 	49 	303
f 128 	283 	127
f 49 	50 	303
f 271 	272 	270
f 271 	270 	269
f 50 	51 	303
f 128 	129 	283
f 273 	274 	272
f 273 	272 	271
f 52 	53 	303
f 275 	276 	274
f 275 	274 	273
f 277 	278 	276
f 277 	276 	275
f 279 	280 	278
f 279 	278 	277
f 281 	282 	280
f 281 	280 	279
f 121 	283 	120
f 122 	283 	121
f 127 	283 	126
f 284 	285 	282
f 284 	282 	281
f 51 	52 	303
f 53 	54 	303
f 261 	260 	288
f 287 	288 	260
f 290 	291 	288
f 290 	288 	287
f 101 	289 	109
f 286 	115 	289
f 289 	43 	286
f 286 	47 	48
f 286 	48 	61
f 61 	62 	286
f 63 	64 	286
f 292 	293 	291
f 292 	291 	290
f 266 	240 	293
f 266 	293 	292
f 55 	56 	294
f 303 	304 	286
f 307 	308 	286
f 134 	286 	308
f 133 	134 	308
f 26 	27 	294
f 149 	299 	148
f 148 	299 	152
f 150 	299 	149
f 299 	289 	152
f 151 	152 	289
f 154 	301 	153
f 153 	301 	150
f 159 	301 	158
f 160 	301 	159
f 160 	116 	301
f 118 	301 	117
f 36 	37 	299
f 35 	36 	299
f 306 	307 	286
f 156 	301 	155
f 154 	155 	301
f 157 	158 	301
f 156 	157 	301
f 299 	150 	301
f 186 	185 	168
f 184 	168 	185
f 131 	132 	308
f 187 	186 	168
f 188 	187 	168
f 132 	133 	308
f 190 	189 	168
f 189 	188 	168
f 283 	129 	308
f 191 	190 	168
f 309 	283 	308
f 130 	131 	308
f 310 	372 	309
f 129 	130 	308
f 313 	560 	312
f 219 	182 	194
f 314 	560 	313
f 197 	196 	182
f 198 	197 	182
f 171 	560 	316
f 315 	316 	560
f 201 	200 	182
f 202 	201 	182
f 318 	518 	317
f 168 	203 	191
f 204 	203 	168
f 167 	204 	168
f 167 	168 	205
f 206 	205 	168
f 168 	11 	206
f 8 	7 	206
f 297 	296 	325
f 297 	325 	326
f 10 	9 	206
f 11 	10 	206
f 326 	325 	328
f 326 	328 	330
f 329 	518 	327
f 324 	518 	323
f 331 	332 	330
f 331 	330 	328
f 211 	210 	407
f 334 	335 	332
f 334 	332 	331
f 518 	329 	333
f 312 	547 	333
f 212 	211 	407
f 336 	337 	335
f 336 	335 	334
f 214 	213 	407
f 213 	212 	407
f 339 	340 	337
f 339 	337 	336
f 342 	343 	340
f 342 	340 	339
f 344 	283 	341
f 343 	342 	345
f 343 	345 	243
f 216 	215 	182
f 346 	347 	243
f 346 	243 	345
f 348 	283 	344
f 341 	309 	338
f 217 	182 	218
f 349 	283 	348
f 347 	346 	246
f 245 	246 	346
f 218 	182 	219
f 350 	283 	349
f 353 	283 	350
f 352 	351 	354
f 352 	354 	355
f 220 	214 	407
f 355 	354 	357
f 355 	357 	358
f 358 	357 	360
f 358 	360 	361
f 362 	363 	361
f 362 	361 	360
f 365 	367 	363
f 365 	363 	362
f 368 	369 	367
f 368 	367 	365
f 369 	368 	297
f 296 	297 	368
f 227 	226 	564
f 372 	310 	371
f 371 	311 	370
f 285 	284 	374
f 373 	374 	284
f 233 	230 	564
f 230 	227 	564
f 234 	233 	564
f 375 	238 	374
f 375 	374 	373
f 338 	309 	372
f 376 	377 	238
f 376 	238 	375
f 239 	564 	215
f 234 	564 	239
f 182 	215 	564
f 379 	380 	377
f 379 	377 	376
f 383 	384 	380
f 383 	380 	379
f 387 	389 	384
f 387 	384 	383
f 390 	394 	317
f 386 	390 	317
f 391 	392 	389
f 391 	389 	387
f 381 	407 	385
f 388 	385 	407
f 395 	397 	392
f 395 	392 	391
f 364 	366 	317
f 394 	364 	317
f 7 	6 	206
f 399 	400 	397
f 399 	397 	395
f 403 	404 	400
f 403 	400 	399
f 12 	11 	168
f 207 	206 	5
f 404 	403 	352
f 351 	352 	403
f 412 	532 	411
f 415 	283 	410
f 226 	224 	564
f 412 	411 	417
f 412 	417 	419
f 223 	222 	443
f 419 	417 	421
f 419 	421 	422
f 414 	443 	222
f 415 	418 	283
f 422 	421 	424
f 422 	424 	425
f 427 	428 	425
f 427 	425 	424
f 429 	433 	283
f 431 	432 	428
f 431 	428 	427
f 547 	283 	433
f 418 	426 	283
f 432 	431 	435
f 432 	435 	236
f 437 	547 	433
f 438 	439 	236
f 438 	236 	435
f 441 	547 	437
f 434 	430 	223
f 436 	434 	223
f 442 	444 	439
f 442 	439 	438
f 440 	436 	223
f 447 	448 	444
f 447 	444 	442
f 393 	407 	3
f 451 	453 	448
f 451 	448 	447
f 396 	393 	3
f 456 	457 	453
f 456 	453 	451
f 460 	461 	457
f 460 	457 	456
f 452 	449 	98
f 464 	465 	241
f 464 	241 	466
f 463 	166 	467
f 462 	166 	463
f 426 	429 	283
f 547 	441 	445
f 547 	445 	446
f 446 	450 	547
f 454 	547 	450
f 461 	460 	470
f 469 	470 	460
f 467 	166 	468
f 472 	473 	470
f 472 	470 	469
f 366 	370 	317
f 311 	317 	370
f 283 	309 	341
f 382 	386 	317
f 518 	382 	317
f 518 	318 	319
f 518 	319 	320
f 518 	320 	321
f 518 	321 	322
f 322 	323 	518
f 327 	518 	324
f 475 	476 	473
f 475 	473 	472
f 468 	166 	471
f 471 	166 	474
f 478 	479 	476
f 478 	476 	475
f 311 	371 	310
f 283 	353 	356
f 283 	356 	359
f 283 	359 	401
f 283 	401 	406
f 410 	283 	409
f 406 	409 	283
f 481 	482 	479
f 481 	479 	478
f 466 	241 	482
f 466 	482 	481
f 465 	464 	488
f 487 	488 	464
f 490 	491 	488
f 490 	488 	487
f 382 	518 	378
f 492 	493 	491
f 492 	491 	490
f 494 	495 	493
f 494 	493 	492
f 183 	485 	483
f 480 	166 	483
f 477 	166 	480
f 474 	166 	477
f 496 	497 	495
f 496 	495 	494
f 518 	484 	378
f 498 	499 	497
f 498 	497 	496
f 501 	502 	499
f 501 	499 	498
f 6 	5 	206
f 393 	388 	407
f 407 	381 	423
f 413 	414 	222
f 443 	440 	223
f 416 	413 	222
f 224 	223 	564
f 420 	416 	222
f 423 	420 	222
f 407 	423 	222
f 407 	222 	221
f 221 	220 	407
f 504 	505 	502
f 504 	502 	501
f 459 	166 	462
f 3 	2 	396
f 4 	3 	407
f 598 	12 	168
f 9 	8 	206
f 183 	483 	166
f 509 	547 	506
f 507 	508 	505
f 507 	505 	504
f 512 	518 	511
f 515 	513 	516
f 515 	516 	517
f 484 	518 	514
f 512 	514 	518
f 519 	520 	517
f 519 	517 	516
f 522 	523 	520
f 522 	520 	519
f 564 	223 	510
f 458 	521 	547
f 524 	525 	523
f 524 	523 	522
f 521 	527 	547
f 528 	529 	525
f 528 	525 	524
f 531 	547 	527
f 532 	533 	529
f 532 	529 	528
f 532 	412 	533
f 536 	564 	538
f 508 	507 	541
f 539 	541 	507
f 535 	547 	531
f 500 	547 	537
f 538 	564 	540
f 454 	458 	547
f 543 	232 	541
f 543 	541 	539
f 542 	564 	510
f 540 	564 	542
f 544 	545 	232
f 544 	232 	543
f 537 	547 	535
f 503 	547 	500
f 503 	506 	547
f 511 	518 	509
f 547 	509 	518
f 548 	549 	545
f 548 	545 	544
f 546 	489 	183
f 486 	183 	489
f 551 	552 	549
f 551 	549 	548
f 518 	333 	547
f 315 	560 	314
f 547 	312 	560
f 550 	546 	183
f 555 	556 	552
f 555 	552 	551
f 553 	550 	183
f 554 	553 	183
f 558 	559 	556
f 558 	556 	555
f 560 	179 	181
f 299 	560 	253
f 181 	577 	560
f 564 	557 	183
f 554 	183 	557
f 526 	557 	564
f 561 	562 	559
f 561 	559 	558
f 486 	485 	183
f 19 	299 	17
f 18 	17 	299
f 563 	565 	562
f 563 	562 	561
f 564 	536 	534
f 564 	534 	530
f 530 	526 	564
f 20 	299 	19
f 566 	567 	565
f 566 	565 	563
f 21 	299 	20
f 568 	569 	567
f 568 	567 	566
f 199 	182 	200
f 196 	195 	182
f 195 	194 	182
f 217 	216 	182
f 430 	510 	223
f 22 	299 	21
f 570 	571 	569
f 570 	569 	568
f 23 	299 	22
f 182 	597 	168
f 182 	168 	184
f 184 	193 	182
f 182 	193 	192
f 192 	202 	182
f 199 	198 	182
f 571 	570 	515
f 513 	515 	570
f 30 	299 	23
f 25 	294 	24
f 203 	298 	191
f 26 	294 	25
f 300 	298 	203
f 27 	28 	294
f 299 	294 	28
f 29 	299 	28
f 205 	302 	295
f 18 	299 	29
f 206 	303 	302
f 206 	302 	205
f 207 	304 	303
f 207 	303 	206
f 32 	299 	31
f 304 	207 	305
f 208 	305 	207
f 33 	299 	32
f 305 	208 	306
f 209 	306 	208
f 34 	299 	33
f 307 	306 	209
f 35 	299 	34
f 30 	31 	299
f 211 	308 	307
f 212 	309 	308
f 212 	308 	211
f 38 	289 	37
f 289 	299 	37
f 39 	289 	38
f 309 	212 	310
f 213 	310 	212
f 40 	289 	39
f 214 	311 	310
f 214 	310 	213
f 41 	289 	40
f 220 	317 	214
f 43 	289 	42
f 42 	289 	41
f 44 	286 	43
f 217 	314 	313
f 45 	286 	44
f 314 	218 	315
f 46 	286 	45
f 219 	316 	218
f 315 	218 	316
f 47 	286 	46
f 316 	219 	171
f 311 	214 	317
f 222 	319 	318
f 223 	320 	319
f 223 	319 	222
f 576 	298 	54
f 300 	295 	54
f 294 	576 	54
f 298 	300 	54
f 321 	320 	223
f 55 	294 	54
f 226 	322 	321
f 56 	57 	294
f 57 	58 	294
f 323 	322 	226
f 58 	59 	294
f 60 	294 	59
f 24 	294 	60
f 234 	329 	327
f 239 	333 	329
f 63 	286 	62
f 312 	333 	239
f 64 	49 	286
f 295 	302 	54
f 302 	303 	54
f 101 	100 	289
f 102 	289 	100
f 393 	348 	388
f 103 	289 	102
f 348 	393 	396
f 104 	289 	103
f 398 	350 	396
f 105 	289 	104
f 350 	398 	402
f 408 	359 	405
f 105 	151 	289
f 414 	413 	364
f 108 	289 	107
f 107 	289 	106
f 109 	289 	108
f 110 	286 	134
f 111 	286 	110
f 112 	286 	111
f 113 	286 	112
f 430 	378 	510
f 114 	286 	113
f 115 	286 	114
f 378 	430 	434
f 378 	434 	382
f 382 	434 	436
f 106 	289 	115
f 117 	301 	116
f 443 	414 	364
f 119 	301 	118
f 120 	283 	119
f 124 	283 	123
f 123 	283 	122
f 125 	283 	124
f 301 	119 	283
f 126 	283 	125
f 483 	446 	480
f 446 	483 	485
f 338 	372 	381
f 385 	341 	381
f 338 	381 	341
f 341 	385 	344
f 388 	344 	385
f 348 	344 	388
f 396 	349 	348
f 350 	349 	396
f 402 	353 	350
f 353 	402 	405
f 353 	405 	356
f 359 	356 	405
f 364 	413 	366
f 366 	413 	416
f 366 	416 	370
f 420 	371 	416
f 370 	416 	371
f 371 	420 	423
f 371 	423 	372
f 372 	423 	381
f 382 	436 	386
f 440 	390 	436
f 386 	436 	390
f 443 	394 	440
f 390 	440 	394
f 394 	443 	364
f 408 	449 	359
f 401 	359 	449
f 452 	406 	401
f 452 	401 	449
f 455 	409 	406
f 455 	406 	452
f 409 	455 	410
f 459 	410 	455
f 462 	415 	410
f 462 	410 	459
f 415 	462 	418
f 463 	418 	462
f 189 	574 	264
f 190 	575 	574
f 190 	574 	189
f 575 	190 	576
f 191 	576 	190
f 191 	298 	576
f 181 	193 	577
f 184 	577 	193
f 578 	579 	580
f 580 	182 	584
f 584 	578 	580
f 581 	578 	584
f 585 	578 	581
f 229 	244 	585
f 597 	573 	572
f 597 	572 	169
f 582 	564 	581
f 585 	581 	564
f 583 	182 	582
f 183 	229 	585
f 183 	585 	564
f 564 	582 	182
f 583 	584 	182
f 588 	589 	590
f 591 	592 	593
f 586 	573 	597
f 595 	594 	597
f 587 	586 	597
f 597 	590 	596
f 588 	590 	597
f 590 	591 	596
f 593 	596 	591
f 609 	608 	597
f 606 	595 	597
f 594 	587 	597
f 407 	210 	5
f 589 	600 	590
f 592 	591 	601
f 601 	591 	590
f 601 	590 	600
f 141 	140 	596
f 210 	209 	5
f 209 	208 	5
f 208 	207 	5
f 599 	598 	168
f 602 	599 	168
f 603 	602 	168
f 597 	604 	168
f 601 	600 	299
f 601 	299 	301
f 603 	168 	604
f 605 	604 	597
f 606 	597 	607
f 608 	607 	597
f 609 	597 	610
f 180 	610 	597
f 611 	597 	612
f 612 	597 	613
f 170 	614 	613
f 170 	615 	614
f 597 	182 	580
f 617 	600 	579
f 589 	579 	600
f 560 	299 	617
f 600 	617 	299
f 579 	589 	580
f 588 	580 	589
f 618 	619 	547
f 617 	620 	560
f 547 	560 	618
f 621 	618 	560
f 621 	560 	620
f 547 	619 	622
f 617 	622 	619
f 617 	619 	620
f 579 	578 	617
f 585 	622 	617
f 585 	617 	578
f 588 	597 	580
f 581 	619 	618
f 581 	618 	582
f 620 	584 	583
f 620 	583 	621
f 621 	583 	582
f 621 	582 	618
f 619 	581 	584
f 619 	584 	620
f 601 	623 	592
f 244 	592 	623
f 244 	623 	622
f 244 	622 	585
f 251 	283 	254
f 283 	287 	260
f 257 	283 	260
f 625 	719 	623
f 626 	624 	623
f 624 	625 	623
f 627 	626 	623
f 630 	629 	622
f 631 	630 	622
f 632 	622 	633
f 634 	622 	635
f 636 	635 	622
f 637 	636 	622
f 640 	616 	170
f 634 	633 	622
f 632 	631 	622
f 547 	622 	641
f 628 	622 	629
f 467 	426 	418
f 467 	418 	463
f 622 	623 	717
f 718 	717 	623
f 639 	547 	641
f 638 	547 	639
f 628 	641 	622
f 468 	429 	426
f 468 	426 	467
f 429 	468 	433
f 471 	433 	468
f 558 	555 	712
f 551 	548 	714
f 713 	712 	551
f 548 	544 	715
f 544 	543 	715
f 644 	715 	543
f 543 	539 	716
f 433 	471 	437
f 474 	437 	471
f 437 	474 	477
f 437 	477 	441
f 427 	424 	383
f 435 	431 	376
f 391 	387 	623
f 438 	435 	373
f 373 	284 	442
f 451 	447 	284
f 480 	445 	441
f 480 	441 	477
f 446 	445 	480
f 485 	450 	446
f 486 	454 	450
f 486 	450 	485
f 454 	486 	458
f 489 	458 	486
f 271 	269 	645
f 267 	645 	269
f 271 	645 	273
f 277 	275 	645
f 279 	277 	645
f 284 	281 	645
f 281 	279 	645
f 287 	283 	290
f 292 	290 	283
f 711 	710 	547
f 709 	708 	547
f 707 	706 	547
f 547 	705 	704
f 547 	704 	703
f 646 	701 	547
f 464 	466 	647
f 547 	647 	466
f 645 	283 	466
f 275 	273 	645
f 267 	263 	645
f 266 	283 	263
f 645 	263 	283
f 266 	292 	283
f 547 	466 	283
f 521 	458 	489
f 257 	254 	283
f 283 	251 	249
f 247 	283 	249
f 245 	346 	283
f 601 	283 	342
f 247 	245 	283
f 301 	283 	601
f 248 	596 	246
f 596 	248 	250
f 258 	596 	255
f 258 	261 	596
f 252 	255 	596
f 268 	237 	265
f 237 	596 	265
f 270 	237 	268
f 272 	237 	270
f 274 	237 	272
f 276 	237 	274
f 278 	237 	276
f 280 	237 	278
f 374 	238 	236
f 238 	377 	236
f 380 	384 	428
f 261 	288 	596
f 291 	596 	288
f 293 	596 	291
f 596 	293 	240
f 330 	593 	326
f 326 	593 	297
f 335 	593 	332
f 330 	332 	593
f 337 	593 	335
f 340 	593 	337
f 246 	596 	347
f 243 	347 	596
f 358 	361 	235
f 355 	358 	235
f 425 	428 	384
f 235 	419 	389
f 419 	422 	389
f 400 	235 	397
f 392 	235 	389
f 352 	355 	235
f 400 	404 	235
f 392 	397 	235
f 404 	352 	235
f 361 	363 	235
f 593 	235 	363
f 593 	363 	367
f 369 	593 	367
f 297 	593 	369
f 343 	593 	340
f 419 	235 	412
f 377 	380 	428
f 432 	236 	377
f 439 	444 	374
f 285 	374 	444
f 282 	285 	444
f 237 	280 	444
f 280 	282 	444
f 453 	237 	448
f 448 	237 	444
f 457 	237 	453
f 461 	237 	457
f 470 	237 	461
f 476 	479 	237
f 482 	237 	479
f 476 	237 	473
f 470 	473 	237
f 325 	601 	328
f 331 	328 	601
f 491 	166 	488
f 334 	601 	336
f 493 	166 	491
f 465 	488 	166
f 495 	653 	493
f 339 	336 	601
f 342 	339 	601
f 346 	345 	283
f 345 	342 	283
f 231 	672 	232
f 671 	231 	232
f 499 	651 	497
f 351 	623 	354
f 357 	354 	623
f 517 	235 	515
f 296 	368 	601
f 368 	365 	601
f 235 	529 	533
f 645 	451 	284
f 412 	235 	533
f 447 	442 	284
f 549 	552 	669
f 442 	438 	373
f 376 	375 	435
f 556 	559 	679
f 399 	395 	623
f 391 	623 	395
f 562 	565 	679
f 679 	668 	556
f 399 	623 	403
f 351 	403 	623
f 559 	562 	679
f 334 	331 	601
f 325 	296 	601
f 365 	362 	601
f 623 	601 	362
f 360 	623 	362
f 360 	357 	623
f 565 	567 	679
f 571 	515 	235
f 569 	571 	235
f 235 	517 	520
f 523 	235 	520
f 529 	235 	525
f 525 	235 	523
f 502 	505 	650
f 649 	650 	505
f 499 	502 	650
f 623 	387 	417
f 417 	411 	623
f 499 	650 	651
f 652 	497 	651
f 654 	493 	653
f 655 	493 	654
f 424 	421 	387
f 387 	383 	424
f 383 	379 	427
f 379 	376 	427
f 431 	427 	376
f 653 	495 	652
f 375 	373 	435
f 456 	451 	645
f 657 	242 	166
f 166 	493 	656
f 478 	475 	645
f 460 	645 	469
f 456 	645 	460
f 242 	658 	166
f 472 	469 	645
f 475 	472 	645
f 183 	166 	663
f 478 	645 	481
f 466 	481 	645
f 665 	183 	664
f 464 	647 	487
f 667 	690 	183
f 490 	487 	647
f 647 	697 	490
f 690 	228 	183
f 232 	545 	671
f 490 	697 	492
f 508 	541 	672
f 492 	697 	494
f 494 	696 	496
f 672 	648 	508
f 541 	232 	672
f 505 	508 	648
f 498 	694 	501
f 496 	695 	498
f 504 	692 	507
f 501 	694 	504
f 513 	570 	623
f 528 	524 	623
f 679 	235 	678
f 678 	235 	677
f 532 	528 	623
f 532 	623 	411
f 545 	549 	670
f 676 	677 	235
f 507 	716 	539
f 716 	644 	543
f 683 	229 	682
f 687 	688 	229
f 688 	689 	229
f 229 	683 	684
f 715 	714 	548
f 689 	225 	229
f 225 	673 	229
f 686 	687 	229
f 714 	713 	551
f 568 	566 	623
f 563 	627 	566
f 228 	691 	183
f 229 	183 	691
f 570 	568 	623
f 648 	692 	693
f 648 	693 	649
f 681 	229 	680
f 691 	680 	229
f 681 	682 	229
f 685 	229 	684
f 685 	686 	229
f 421 	417 	387
f 623 	524 	522
f 623 	522 	519
f 516 	623 	519
f 516 	513 	623
f 694 	650 	649
f 694 	649 	693
f 514 	542 	510
f 692 	504 	693
f 716 	507 	692
f 695 	651 	694
f 650 	694 	651
f 700 	699 	647
f 693 	504 	694
f 651 	695 	696
f 651 	696 	652
f 697 	653 	652
f 697 	652 	696
f 530 	534 	506
f 506 	534 	536
f 698 	654 	653
f 698 	653 	697
f 694 	498 	695
f 699 	655 	654
f 699 	654 	698
f 695 	496 	696
f 538 	540 	512
f 696 	494 	697
f 700 	656 	655
f 700 	655 	699
f 542 	514 	540
f 512 	540 	514
f 698 	697 	647
f 701 	657 	656
f 701 	656 	700
f 699 	698 	647
f 646 	242 	657
f 646 	657 	701
f 700 	647 	701
f 647 	547 	701
f 242 	646 	658
f 702 	658 	646
f 703 	659 	658
f 703 	658 	702
f 646 	547 	702
f 550 	553 	531
f 547 	703 	702
f 704 	660 	659
f 704 	659 	703
f 531 	553 	554
f 705 	661 	660
f 705 	660 	704
f 554 	557 	537
f 706 	662 	661
f 706 	661 	705
f 537 	557 	526
f 707 	663 	662
f 707 	662 	706
f 484 	514 	510
f 708 	664 	663
f 708 	663 	707
f 484 	510 	378
f 709 	665 	664
f 709 	664 	708
f 537 	526 	500
f 710 	666 	665
f 710 	665 	709
f 705 	547 	706
f 530 	503 	526
f 500 	526 	503
f 711 	667 	666
f 711 	666 	710
f 503 	530 	506
f 707 	547 	708
f 536 	509 	506
f 638 	690 	667
f 638 	667 	711
f 509 	536 	538
f 509 	538 	511
f 709 	547 	710
f 511 	538 	512
f 668 	627 	712
f 711 	547 	638
f 668 	712 	713
f 668 	713 	669
f 669 	713 	714
f 669 	714 	670
f 546 	521 	489
f 670 	714 	715
f 670 	715 	671
f 550 	527 	546
f 671 	715 	644
f 671 	644 	231
f 521 	546 	527
f 563 	561 	627
f 623 	566 	627
f 527 	550 	531
f 716 	672 	231
f 716 	231 	644
f 561 	558 	627
f 712 	627 	558
f 555 	551 	712
f 531 	554 	535
f 692 	648 	672
f 692 	672 	716
f 535 	554 	537
f 225 	637 	643
f 643 	637 	622
f 717 	673 	225
f 717 	225 	643
f 17 	18 	572
f 169 	572 	18
f 643 	622 	717
f 718 	674 	673
f 718 	673 	717
f 17 	572 	573
f 719 	675 	674
f 719 	674 	718
f 573 	586 	20
f 718 	623 	719
f 625 	676 	675
f 625 	675 	719
f 587 	21 	586
f 20 	586 	21
f 624 	677 	676
f 624 	676 	625
f 21 	587 	594
f 21 	594 	22
f 626 	678 	677
f 626 	677 	624
f 595 	23 	594
f 22 	594 	23
f 627 	679 	678
f 627 	678 	626
f 606 	30 	595
f 627 	668 	679
f 12 	598 	24
f 629 	681 	680
f 629 	680 	628
f 599 	25 	598
f 24 	598 	25
f 630 	682 	681
f 630 	681 	629
f 25 	599 	602
f 25 	602 	26
f 631 	683 	682
f 631 	682 	630
f 26 	602 	603
f 632 	684 	683
f 632 	683 	631
f 603 	604 	28
f 684 	632 	633
f 684 	633 	685
f 605 	29 	604
f 28 	604 	29
f 685 	633 	634
f 685 	634 	686
f 169 	18 	29
f 169 	29 	605
f 686 	634 	635
f 686 	635 	687
f 23 	595 	30
f 687 	635 	636
f 687 	636 	688
f 607 	31 	30
f 607 	30 	606
f 688 	636 	637
f 688 	637 	689
f 31 	607 	32
f 608 	32 	607
f 689 	637 	225
f 609 	33 	32
f 609 	32 	608
f 639 	228 	690
f 639 	690 	638
f 33 	609 	610
f 641 	691 	228
f 641 	228 	639
f 35 	610 	180
f 691 	641 	680
f 628 	680 	641
f 35 	180 	36
f 611 	36 	180
f 612 	37 	36
f 612 	36 	611
f 37 	612 	613
f 614 	39 	613
f 262 	299 	259
f 299 	253 	256
f 264 	294 	262
f 256 	259 	299
f 39 	614 	40
f 615 	40 	614
f 574 	294 	264
f 616 	41 	40
f 616 	40 	615
f 575 	294 	574
f 576 	294 	575
f 42 	41 	616
f 305 	306 	286
f 304 	305 	286
f 299 	262 	294
f 640 	42 	616
f 253 	560 	577
f 42 	640 	43
f 642 	43 	640
f 162 	44 	43
f 162 	43 	642
f 44 	162 	45
f 161 	45 	162
f 163 	46 	45
f 163 	45 	161
f 172 	560 	171
f 47 	46 	163
f 47 	163 	164
f 173 	560 	172
f 47 	164 	48
f 165 	48 	164
f 175 	560 	174
f 13 	48 	165
f 177 	560 	176
f 173 	174 	560
f 178 	560 	177
f 175 	176 	560
f 179 	560 	178
# 1466 faces

 #end of obj_0

